<?xml version="1.0" encoding="utf-8"?>
<!-- Generator: Adobe Illustrator 19.0.0, SVG Export Plug-In . SVG Version: 6.00 Build 0)  -->
<svg version="1.1" id="Capa_1" xmlns="http://www.w3.org/2000/svg" xmlns:xlink="http://www.w3.org/1999/xlink" x="0px" y="0px"
	 viewBox="-223 25 512 512" style="enable-background:new -223 25 512 512;" xml:space="preserve">
<style type="text/css">
	.st0{fill:url(#SVGID_1_);}
	.st1{fill:url(#SVGID_2_);}
	.st2{fill:url(#SVGID_3_);}
	.st3{fill:none;}
	.st4{fill:#EB3F35;}
	.st5{fill:#ED7E77;}
	.st6{fill:#BD222E;}
	.st7{fill:#BD212E;}
</style>
<linearGradient id="SVGID_1_" gradientUnits="userSpaceOnUse" x1="34.4063" y1="72" x2="34.4063" y2="582.04" gradientTransform="matrix(1 0 0 1 0 -42)">
	<stop  offset="0" style="stop-color:#C271DE"/>
	<stop  offset="1" style="stop-color:#FF0007"/>
</linearGradient>
<path class="st0" d="M290.4,143.2v275.5c0,65.3-52.9,118.2-118.2,118.2h-275.5c-65.3,0-118.2-52.9-118.2-118.2V143.2
	C-221.6,77.9-168.7,25-103.4,25h275.5C237.5,25,290.4,77.9,290.4,143.2z"/>
<linearGradient id="SVGID_2_" gradientUnits="userSpaceOnUse" x1="34.3064" y1="75.922" x2="34.3064" y2="577.99" gradientTransform="matrix(1 0 0 1 0 -42)">
	<stop  offset="0.2241" style="stop-color:#FFFFFF"/>
	<stop  offset="0.9704" style="stop-color:#DA2714"/>
</linearGradient>
<path class="st1" d="M-103.4,533c-63,0-114.2-51.2-114.2-114.2V143.2c0-63,51.2-114.2,114.2-114.2h275.5
	c63,0,114.2,51.2,114.2,114.2v275.5c0,63-51.2,114.2-114.2,114.2L-103.4,533L-103.4,533z"/>
<linearGradient id="SVGID_3_" gradientUnits="userSpaceOnUse" x1="103.75" y1="338.1436" x2="266.7798" y2="501.1734" gradientTransform="matrix(1 0 0 1 0 -42)">
	<stop  offset="1.970443e-002" style="stop-color:#FF4B27"/>
	<stop  offset="1" style="stop-color:#A2AF5F;stop-opacity:0"/>
</linearGradient>
<path class="st2" d="M290.4,265.7v153.1c0,65.3-52.9,118.2-118.2,118.2H96.7L-17.6,423l248.1-248.4L290.4,265.7z"/>
<line class="st3" x1="230.5" y1="314.5" x2="247.5" y2="267.3"/>
<g>
	<path class="st4" d="M-91.1,119.4c22.9-4.9,43.5,0.8,62.2,14.2c18.9,13.4,33,31.3,45.8,50.3c4.2,6.2,8.1,12.6,12,19
		c3.1,5.1,3,5.1,6.2,0.3c11.4-17.5,23.7-34.2,38.6-48.8c10.3-10.2,21.4-19.6,34.5-26c30.3-14.8,59-11.3,85.8,8.5
		c21.9,16.2,37.9,37.7,52.2,60.5c5.5,8.7,10.4,17.8,15.5,26.7c1.1,1.8,2.3,3.7,1.5,6.1c-0.7-0.1-1.3-0.2-2-0.2
		c-41.6,0-83.3,0-124.9-0.1c-4.3,0-4.3,2.1-4.3,5.3c0.1,35-0.1,70,0.1,104.9c0,4.9-1.5,6-6.2,6c-31.1-0.2-62.3-0.1-93.4-0.1
		c-8.5,0-7.6-1-7.6,7.3c0,35,0,70,0,104.9c0,2.1,0.7,4.4-1.2,6.1c-13.1-11.5-25.6-23.8-38.2-35.9c-37-35.8-71.9-73.5-105.3-112.6
		c-25.5-29.9-49.6-60.9-72.4-92.9c-1.1-1.5-2.3-2.9-1.9-4.9c34.4,0,68.7,0,103.1,0c0,40.7,0.1,81.3-0.1,122c0,4.3,1.3,6.1,5.6,6.1
		c34.7-0.1,69.3-0.1,104,0c3.9,0,5.6-1.4,5.5-5.6c-0.1-39.2-0.1-78.3,0-117.5c0-4.1-1.3-5-5.1-5C-17.7,218-54.4,218-91,218
		C-91.1,185.1-91.1,152.2-91.1,119.4z"/>
	<path class="st5" d="M23.7,464.3c1.9-1.8,1.2-4.1,1.2-6.1c0-35,0-70,0-104.9c0-8.3-0.9-7.3,7.6-7.3c31.1,0,62.3-0.1,93.4,0.1
		c4.7,0,6.2-1.1,6.2-6c-0.2-35-0.1-70-0.1-104.9c0-3.1,0-5.3,4.3-5.3c41.6,0.2,83.3,0.1,124.9,0.1c0.7,0,1.3,0.2,2,0.2
		c-3,12.8-9.1,24.2-15.4,35.5c-20.9,37.9-49.3,69.7-80.4,99.3c-34.3,32.6-71.4,61.8-109.9,89.2c-7.3,5.2-14.9,10.2-23.4,13.2
		C30.1,468.9,26,469.6,23.7,464.3z"/>
	<path class="st6" d="M-91.1,119.4c0,32.9,0.1,65.8,0.1,98.7l0,0c-34.4,0-68.7,0-103.1,0c-0.7-1.5,0.4-2.5,1.1-3.6
		c14.6-25.1,30.4-49.3,51.8-69.4C-127.1,131.7-111.3,121.1-91.1,119.4z"/>
	<path class="st7" d="M-91,218c36.7,0,73.3,0,110-0.1c3.9,0,5.1,1,5.1,5c-0.1,39.2-0.1,78.3,0,117.5c0,4.2-1.6,5.6-5.5,5.6
		c-34.7,0-69.3-0.1-104,0c-4.3,0-5.6-1.8-5.6-6.1C-90.9,299.3-91,258.6-91,218C-91,218-91,218-91,218z"/>
</g>
</svg>
