<?xml version="1.0" encoding="utf-8"?>
<!-- Generator: Adobe Illustrator 19.0.0, SVG Export Plug-In . SVG Version: 6.00 Build 0)  -->
<svg version="1.1" id="Layer_1" xmlns="http://www.w3.org/2000/svg" xmlns:xlink="http://www.w3.org/1999/xlink" x="0px" y="0px"
	 viewBox="-223 25 512 512" style="enable-background:new -223 25 512 512;" xml:space="preserve">
<style type="text/css">
	.st0{fill:url(#SVGID_1_);}
	.st1{fill:url(#SVGID_2_);}
	.st2{fill:#545E73;}
	.st3{fill:#6CBACD;}
	.st4{fill:#323A45;}
	.st5{fill:#B7E7E7;}
	.st6{fill:#D8E5E6;}
	.st7{fill:#DDE4E6;}
	.st8{fill:#D1E6E6;}
	.st9{fill:#C7E6E7;}
	.st10{fill:#CCE6E7;}
	.st11{fill:#C2E6E7;}
	.st12{fill:#DCE4E5;}
	.st13{fill:#ED7D77;}
	.st14{fill:#EE382D;}
	.st15{fill:#BD212E;}
	.st16{fill:#EB3F35;}
	.st17{fill:#89C5D3;}
</style>
<linearGradient id="SVGID_1_" gradientUnits="userSpaceOnUse" x1="-223" y1="281" x2="289" y2="281">
	<stop  offset="1.477833e-002" style="stop-color:#33A5FF"/>
	<stop  offset="1" style="stop-color:#55AE59"/>
</linearGradient>
<path class="st0" d="M33,25c-141.4,0-256,114.6-256,256c0,53.5,16.4,103.2,44.5,144.3l-33.6,100.9l100.9-33.6
	C-70.2,520.6-20.5,537,33,537c141.4,0,256-114.6,256-256C289,139.6,174.4,25,33,25z"/>
<linearGradient id="SVGID_2_" gradientUnits="userSpaceOnUse" x1="35.4267" y1="524.0153" x2="35.4267" y2="34.553">
	<stop  offset="0" style="stop-color:#33FFFF"/>
	<stop  offset="1" style="stop-color:#55D759"/>
</linearGradient>
<path class="st1" d="M35.4,34.6c-136.4,0-247,109.6-247,244.7c0,51.2,15.9,98.6,42.9,137.9l-32.5,96.4l97.3-32.1
	C-64.1,508.3-16.2,524,35.4,524c136.4,0,247-109.6,247-244.7C282.5,144.1,171.9,34.6,35.4,34.6z"/>
<g>
	<g>
		<g>
			<path class="st2" d="M130.1,480.2H-47.3c-13.3,0-24-10.7-24-24V95.6c0-13.2,10.7-24,24-24h177.4c13.3,0,24,10.7,24,24v360.6
				C154.1,469.5,143.4,480.2,130.1,480.2z"/>
			<rect x="-71.3" y="113.9" class="st3" width="225.4" height="281.8"/>
			<circle class="st4" cx="41.4" cy="438" r="21.1"/>
			<path class="st4" d="M41.4,99.8H13.3c-3.9,0-7-3.1-7-7c0-3.9,3.1-7,7-7h28.2c3.9,0,7,3.1,7,7C48.5,96.7,45.3,99.8,41.4,99.8z"/>
			<path class="st4" d="M69.6,99.8h-7c-3.9,0-7-3.1-7-7c0-3.9,3.1-7,7-7h7c3.9,0,7,3.1,7,7C76.7,96.7,73.5,99.8,69.6,99.8z"/>
		</g>
	</g>
	<g>
		<path class="st5" d="M-32.4,161.5c3.5-5.2,7.7-9.9,12.3-14.1c6.3-5.8,13.3-10.7,21-14.4c9.8-4.8,20.1-7.8,31-8.8
			c23.1-2.1,43.9,3.8,62.5,17.6c7.7,5.7,14.2,12.6,19.7,20.5c0.3,0.5,0.8,1,0.8,1.6c0,0.5,0.1,0.9,0.6,1c0,0,0,0,0,0
			c0.4,1.1,0.5,2.4,1.9,2.8c0,0,0,0,0,0c0,0.7,0.3,1.3,0.6,1.9c0.6,1.2,1.2,2.5,1.8,3.7c0.3,0.7,0.5,1.4,0.1,2.1
			c-0.5,0.7-1.3,0.4-2,0.4c-0.7,0-1.4-0.6-2.1-0.3c-3.2,1.2-6.5,0.3-9.7,0.6c-3.4,0.4-6.8-1-10.3,0c-1.1,0.3-1.7,0.4-1.3,1.6
			c-3-2.6-5.8-5.5-9.2-7.7c-7.5-4.7-15.2-5.2-23.2-1.6c-6.2,2.8-10.9,7.5-15.3,12.5c-1.2,1.4-2.2,3.3-4.7,1.9
			c-0.5-0.3-1.1-0.2-1.7-0.1c-0.4,0.1-0.9,0.1-1.2-0.2c-1.1-1.1-2.5-0.8-3.8-0.6c-1.2,0.2-3-0.1-2.1,2.2c-0.5-0.1-0.7-0.4-0.8-0.6
			c-2.6-3.3-5.1-6.7-8.2-9.6c-0.5-0.5-1-1.1-1.8-1.1c-0.1-0.4-0.3-0.7-0.7-0.9c-0.9-1.2-2.2-1.8-3.4-2.6c-7.1-4.7-14.7-4.9-22.6-2.3
			c-4.1,1.4-7.4,4-10.6,6.8c-1.1,1-2.2,0.8-3.2,0.2c-0.6-0.4-1-0.3-1.7-0.1c-1.1,0.3-2.2,0.7-3.3,0.3c-0.7-0.3-1.3-0.3-1.9,0.1
			c-0.3,0.2-0.7,0.4-1.2,0.3c-3.1-0.5-6.3-0.3-9.5-0.7c-1.1-0.1-2.3-0.8-3.3,0.2c-0.3-0.6-0.2-1.1,0.1-1.5c1.9-3.3,3.5-6.6,5.7-9.7
			C-32.5,162.6-31.9,162.2-32.4,161.5z"/>
		<path class="st6" d="M125.7,239.6c-0.4,2.8-1.6,5.3-2.7,7.8c-3,7.2-6.8,13.9-11.7,20c-0.6,0-1,0.3-1,1c0,0,0,0,0,0
			c-0.7,0-0.9,0.6-1.3,1c-2.7,3.1-5.3,6.3-8.6,8.9c-0.4,0.3-0.6,0.7-0.6,1.2c0,0,0,0,0,0c-0.3-0.1-0.8-0.1-0.8-0.4
			c0-1.4-0.7-1.2-1.5-0.6c-0.2,0.1-0.5,0.3-0.7,0.2c-1.7-0.7-3.3-0.6-5.1,0c-0.6,0.2-1.4-0.3-2.1-0.1c-1.4,0.4-2.7,0.1-4-0.5
			c-0.5-0.2-0.8-0.4-1.2,0.1c-0.7,0.9-1.7,0.9-2.5,0.4c-1.4-0.9-3,0.3-4.4-0.7c-0.1-0.1-0.4,0.2-0.5,0.2c-2,0.5-4.1,1-6,0
			c-0.8-0.4-1.4-0.4-2.1,0.1c-0.8,0.6-1.7,0.6-2.8,0.4c-1.1-0.3-2.7-0.8-3.5-0.4c-1.4,0.8-2.9-0.1-4.2,0.6c-0.3,0.2-0.8-0.1-1.2-0.3
			c-1.9-1.1-4.1-0.4-6.1-0.8c-0.2,0-0.5,0.2-0.6,0.4c-1.1,1.4-2.6,0.8-3.8,0.4c-1.5-0.5-3.1-0.6-4.6-0.3c-1,0.2-2,0.4-3,0.4
			c-1.3,0-2.2-0.1-3.2-0.8c-0.4-0.3-1-0.2-1.5,0c-1.7,0.8-3.6,0.4-5.4,0.4c-1.1,0-2.5-1.2-3.4,0.4c0,0-0.2,0.1-0.3,0
			c-1.1-1-2.5-0.4-3.7-0.4c-1.8,0.1-3.6-0.4-5.3,0.4c-0.8,0.4-1.8,0.5-2.6-0.2c-1-0.8-2-0.9-3.1-0.4c-0.9,0.4-1.8,0.8-2.7-0.1
			c-0.4-0.4-0.9-0.3-1.2,0.1c-0.8,1-1.9,0.7-2.8,0.4c-0.9-0.4-1.6-0.2-2.2,0.4c-0.8,0.8-1.4,0.7-1.9-0.4c-0.3-0.6-0.7-0.8-1.2-0.3
			c-0.6,0.5-1.3,0.4-2,0.3c-1.2-0.1-2.5-0.3-3.6-0.1c-2.1,0.3-4.1-0.2-6.1-0.1c-1.4,0.1-3.1-0.7-4.2,0.9c-0.3,0.4-0.9,0.4-1.4,0
			c-1.5-1.4-3-2.8-4.4-4.3c-1.3-1.3-2.2-3-4.1-3.6c-4-4.4-7.4-9.3-10.2-14.5c0.4,0,0.8,0.2,1.2,0.1c1.3-0.2,2.4,1,3.5,0.6
			c2.3-0.8,4.7-0.5,6.9-0.6c2.3-0.1,4.7-0.1,7.1,0.2c1,0.2,2.2,0.2,3.1,0.1c1.9-0.2,3.8,0.2,5.7,0c1.5-0.1,2.9-0.7,4.3-0.5
			c4.9,0.4,10-0.4,14.8,1.1c0,0,0.1,0,0.1,0c1.7-1.4,3.4-1,5.4-0.7c1.8,0.3,3.7-0.3,5.5,0.6c0.3,0.2,0.6,0.1,0.8-0.2
			c0.4,0.4,0.9,0.9,1.3,1.3c-0.6,0.6-0.1,1,0.3,1.3c1.9,1.5,3.6,3.4,5.4,5.1c0.3,0.3,0.6,0.6,1,0.1c0.5,0.3,1,0.8,1.3,1.3
			c0,1.1,2.6,3.5,4,3.7c0.2,0.2,0.4,0.4,0.6,0.6c-0.3,1.2,0.6,1.4,1.4,1.6c1.2,0.4,2.2-0.1,3.3-0.5c3.9-1.8,7.4-4.3,10.9-6.9
			c4.5-3.3,8.9-6.8,13.3-10.2c0.1,0.3,0,0.8,0.5,0.7c0.1,0,0.2-0.1,0.2-0.2c0-0.6-0.4-0.4-0.7-0.5c0.4-0.5,0.9-1,1.5-1.3
			c0.6,1.1,1.4,0.6,2.1,0.3c0.9-0.4,1.8-1.2,2.9-1c2.9,0.5,5.9,0.3,8.8,0.6c1.2,0.1,2.1-0.5,3.3-0.4c3.8,0.4,7.7,0.2,11.5,0.2
			c2.9,0,5.7-0.3,8.5-0.2c1.8,0.1,3.6-0.8,5.5-0.2c2.8,0.8,5.7,0.6,8.6,0.4c0.7,0,1.5-0.2,1.7,0.8c0.1,0.4,0.7,0.7,0.7,0.3
			c0-1.7,1.5-2.5,2.1-3.8c1.3-3.1,2.7-6.2,3.7-9.5C124.9,240.2,125.1,239.7,125.7,239.6z"/>
		<path class="st7" d="M-27.2,271.1c1.9,0.6,2.8,2.3,4.1,3.6c1.5,1.4,2.9,2.8,4.4,4.3c0.5,0.4,1.1,0.4,1.4,0
			c1.1-1.6,2.8-0.9,4.2-0.9c2-0.1,4,0.4,6.1,0.1c1-0.1,2.4,0,3.6,0.1c0.7,0.1,1.4,0.2,2-0.3c0.5-0.5,0.9-0.3,1.2,0.3
			c0.4,1.1,1,1.2,1.9,0.4c0.6-0.6,1.3-0.7,2.2-0.4c0.9,0.3,2,0.7,2.8-0.4c0.3-0.4,0.9-0.4,1.2-0.1c0.9,0.9,1.8,0.5,2.7,0.1
			c1.1-0.5,2.2-0.5,3.1,0.4c0.8,0.7,1.8,0.7,2.6,0.2c1.7-0.9,3.6-0.4,5.3-0.4c1.2,0,2.6-0.6,3.7,0.4c0.1,0,0.3,0,0.3,0
			c1-1.6,2.3-0.4,3.4-0.4c1.8,0,3.6,0.4,5.4-0.4c0.5-0.2,1.1-0.3,1.5,0c1,0.7,1.9,0.9,3.2,0.8c1.1,0,2-0.2,3-0.4
			c1.5-0.3,3-0.2,4.6,0.3c1.2,0.4,2.7,1,3.8-0.4c0.2-0.2,0.5-0.4,0.6-0.4c2,0.4,4.2-0.3,6.1,0.8c0.4,0.2,0.8,0.5,1.2,0.3
			c1.3-0.7,2.8,0.2,4.2-0.6c0.8-0.4,2.4,0.1,3.5,0.4c1.1,0.3,1.9,0.2,2.8-0.4c0.7-0.5,1.3-0.4,2.1-0.1c2,0.9,4,0.4,6,0
			c0.2,0,0.5-0.3,0.5-0.2c1.3,1,3-0.2,4.4,0.7c0.8,0.5,1.8,0.5,2.5-0.4c0.4-0.5,0.7-0.3,1.2-0.1c1.3,0.7,2.6,0.9,4,0.5
			c0.7-0.2,1.5,0.3,2.1,0.1c1.7-0.6,3.4-0.6,5.1,0c0.2,0.1,0.5-0.1,0.7-0.2c0.8-0.5,1.5-0.8,1.5,0.6c0,0.3,0.5,0.3,0.8,0.4
			c-0.2,0.9-1,1.3-1.6,1.8c-14.4,12-30.9,19.2-49.6,20.6c-29,2.3-53.5-7.3-73.6-28.2C-25.8,272.8-26.7,272.1-27.2,271.1z"/>
		<path class="st8" d="M21.1,257.3c-0.2,0.3-0.5,0.3-0.8,0.2c-1.8-0.9-3.7-0.4-5.5-0.6c-2-0.3-3.7-0.6-5.4,0.7c0,0-0.1,0-0.1,0
			c-4.8-1.5-9.9-0.7-14.8-1.1c-1.4-0.1-2.9,0.4-4.3,0.5c-1.9,0.2-3.8-0.3-5.7,0c-0.9,0.1-2.1,0.1-3.1-0.1c-2.4-0.4-4.8-0.3-7.1-0.2
			c-2.3,0.1-4.6-0.2-6.9,0.6c-1,0.4-2.2-0.8-3.5-0.6c-0.4,0.1-0.8-0.1-1.2-0.1c-2.2-3.7-4-7.6-5.5-11.7c0.5-0.8,0.3-1.3-0.6-1.6
			c-0.2-0.6-0.4-1.2-0.6-1.8c0.5-1.3,0.3-2.3-1-3.1c-1.5-4.3-2.3-8.7-3-13.2c-0.4-2.8-0.6-5.7-0.5-8.6c0.7,0.9,0.6,2,0.8,3.1
			c0.4,1.4,2.1,3.1,3.4,3.3c0.3,0.1,0.6-0.1,0.8-0.3c1.3-1,2.6-1.5,4.1-0.2c0.3,0.3,0.7,0.3,1,0.1c2.3-1.1,4.6,0,6.9-0.2
			c1.8-0.2,3.7,0.1,5.5-0.1c2.1-0.2,4.1-0.9,6.3,0c0.8,0.4,2.4,0.4,3.3,0c1.8-1,3-0.3,4.3,0.7c0.2,0.2,0.5,0.5,0.9,0.1
			c-0.1-0.2-0.1-0.4-0.3-0.5c-3.3-4.2-6.7-8.3-10-12.5c-0.5-0.6-0.7-1.1-0.6-1.8c0.1,0.1,0.2,0.2,0.3,0.3c6.9,9,14.1,17.7,21.5,26.2
			c0.1,0.1,0.2,0.2,0.4,0.3l0,0c0.1,0.1,0.2,0.2,0.3,0.3l0,0c0.1,0.1,0.2,0.2,0.3,0.3l0,0c0.1,0.1,0.2,0.2,0.3,0.3
			c0.2,0.2,0.4,0.4,0.6,0.7c0.1,0.1,0.2,0.2,0.3,0.3C8.2,243.9,14.6,250.7,21.1,257.3z"/>
		<path class="st9" d="M-22.1,208.4c-0.1,0.7,0.2,1.3,0.6,1.8c3.4,4.1,6.7,8.3,10,12.5c0.1,0.1,0.2,0.3,0.3,0.5
			c-0.4,0.3-0.7,0-0.9-0.1c-1.3-1-2.5-1.6-4.3-0.7c-0.8,0.5-2.4,0.4-3.3,0c-2.2-0.9-4.2-0.2-6.3,0c-1.8,0.2-3.7-0.1-5.5,0.1
			c-2.3,0.2-4.7-0.8-6.9,0.2c-0.4,0.2-0.7,0.1-1-0.1c-1.4-1.3-2.8-0.8-4.1,0.2c-0.3,0.2-0.5,0.3-0.8,0.3c-1.3-0.2-3-1.9-3.4-3.3
			c-0.3-1-0.1-2.2-0.8-3.1c-0.3-0.5-0.4-0.9-0.1-1.4c0.9-1,0.9-3.6,0-4.6c-0.2-0.4-0.2-0.8,0.2-1.1c0.3-1.4,1-2.7,0.1-4.1
			c0.3-7.7,2.2-15,4.7-22.2c2.6-7.5,6.3-14.5,10.8-21.1c0.1-0.2,0.3-0.4,0.5-0.6c0.5,0.7-0.1,1.1-0.4,1.6c-2.2,3-3.9,6.4-5.7,9.7
			c-0.2,0.4-0.4,0.9-0.1,1.5c1-1,2.3-0.4,3.3-0.2c3.2,0.4,6.3,0.3,9.5,0.7c0.4,0.1,0.8-0.1,1.2-0.3c0.6-0.4,1.2-0.4,1.9-0.1
			c1.1,0.4,2.2,0,3.3-0.3c0.6-0.2,1-0.2,1.7,0.1c1,0.6,2.1,0.8,3.2-0.2c3.2-2.8,6.5-5.4,10.6-6.8c7.9-2.6,15.5-2.4,22.6,2.3
			c1.2,0.8,2.5,1.4,3.4,2.6c-0.1,0.1-0.2,0.2-0.3,0.4c-1.5-1.2-3.1-2.3-4.8-3.2c-5-2.7-10.2-3.7-15.8-2.4c-1.2,0.1-2.4,0.3-3.6,0.6
			c-6,1.8-10.5,5.8-14.7,10.3c-1.3,1.4-2.3,3-3.8,4.2c-0.4,0.1-0.6,0.2-0.3,0.6c-0.1,0.2-0.3,0.4-0.4,0.6c-0.1,0.1-0.2,0.2-0.3,0.3
			l0,0c-0.1,0.2-0.2,0.3-0.3,0.5c-0.1,0.2-0.2,0.3-0.3,0.5c-0.1,0.1-0.2,0.3-0.3,0.4c-0.2,0.3-0.4,0.6-0.6,0.9
			c-0.1,0.2-0.2,0.3-0.3,0.5c-0.1,0.2-0.2,0.3-0.3,0.5c-0.1,0.1-0.2,0.3-0.3,0.4c-0.1,0.2-0.2,0.3-0.3,0.5c-0.1,0.2-0.2,0.3-0.3,0.5
			c-0.1,0.2-0.2,0.3-0.3,0.5c-0.2,0-0.4,0.1-0.2,0.4c-0.1,0.2-0.2,0.4-0.4,0.6c-0.1,0.2-0.2,0.3-0.3,0.5l0,0.1l-0.1,0
			c-0.1,0.1-0.2,0.3-0.3,0.4c-0.1,0.1-0.1,0.2-0.2,0.3c-0.3,0.1-0.7,0.2-0.4,0.6c-0.1,0.2-0.2,0.4-0.4,0.6c-0.1,0.1-0.2,0.3-0.3,0.4
			l0,0c-0.4,0-0.6,0.1-0.3,0.6c-0.1,0.2-0.2,0.4-0.3,0.6c-0.1,0.1-0.2,0.3-0.3,0.4c0,0,0.1,0,0.1,0c-0.9,0.2-0.9,0.9-0.9,1.6l0,0
			c-1.2,0.5-1.5,1.2-0.4,2.1l0,0.1c0.1,0.2,0.2,0.3,0.3,0.5l0-0.1c0,0.5,0.1,0.9,0.7,0.9l-0.1,0c0.1,0.1,0.2,0.3,0.3,0.4l0,0
			c0,0.5,0.1,0.8,0.6,0.9l0,0c0,0.5,0.1,0.9,0.7,0.9l-0.1,0c0.1,0.1,0.2,0.3,0.3,0.4l0,0c0,0.5,0.1,0.8,0.7,0.9l0,0
			c-0.1,0.7,0.1,1.2,0.9,1.3l0,0c0,0.7,0.2,1.2,0.9,1.2l0,0c0,0.5,0.2,0.9,0.7,0.9c0.1,0.1,0.1,0.2,0.2,0.3c0,0.5,0.1,0.9,0.6,1
			c0.1,0.2,0.2,0.3,0.3,0.5c0.1,0.1,0.2,0.3,0.3,0.4l0-0.1C-22.7,208.1-22.5,208.3-22.1,208.4L-22.1,208.4z"/>
		<path class="st10" d="M129.8,208.7c0.2,3.1,0.4,6.2-0.2,9.3c-0.1,0.3-0.1,0.6-0.2,0.9c-0.1,1.6,0.3,3.1-0.2,4.7
			c-0.8,0.1-0.7,0.8-0.8,1.3c-0.7,2.6-0.4,5.5-2.2,7.9c-0.5,0.6-0.8,0.8-1.6,0.8c-2,0.1-4.1-1-5.9,0.5c-0.4,0.3-1,0.1-1.5-0.2
			c-1.5-0.8-3-0.6-4.5-0.2c-0.4,0.1-0.8,0.3-1.2,0.1c-2.4-1-4.9-0.1-7.3-0.2c-2.3-0.2-4.7,0.9-7.1-0.3c-0.2-0.1-0.6-0.1-0.7,0
			c-1.6,1-3.3,0.3-4.9,0.2c-1.4-0.1-2.8-0.2-4.1,1.1c-1,0.9-1.8,2.5-3.7,2.2c0.3-0.3,0.6-0.6,0.9-0.9c1.2-0.6,2.2-1.5,2.7-2.8
			c1.7-1.6,3-3.5,4.5-5.3c5.3-6.2,10-12.9,13.5-20.3c1.1-2.3,2.4-4.6,2.7-7.3c0.1-0.1,0.1-0.3,0.2-0.4c0,0,0.1-0.1,0.1-0.1
			c0-0.1-0.1-0.2-0.1-0.3c-0.2-0.3-0.4-0.7-0.6-1c-0.1-0.4-0.2-0.7-0.5-0.9c-0.3-0.5-0.5-1-0.8-1.5c-0.1-0.1-0.1-0.2-0.2-0.3
			c0-0.1,0-0.1-0.1-0.1l0-0.1l-0.1-0.1c-0.1-0.2-0.2-0.4-0.4-0.6c-0.3-0.8-0.7-1.5-1.3-2.2c-0.1-0.4-0.3-0.9-0.7-1.2
			c-0.2-0.3-0.4-0.6-0.6-0.9c-0.3-0.4-0.5-0.8-0.8-1.3c-0.1-0.2-0.3-0.4-0.4-0.6c-0.1-0.1-0.1-0.2-0.2-0.3c-0.1-0.1-0.1-0.2-0.2-0.3
			c-0.1-0.2-0.3-0.4-0.4-0.7c-0.2-0.3-0.5-0.7-0.7-1c-0.1-0.2-0.2-0.3-0.3-0.5c-0.1-0.3-0.3-0.6-0.4-0.8c0.8,0,1.1,0.6,1.5,1.1
			c2.9,4.1,5.3,8.5,7.8,12.9c0.4,0.7,0.4,1.4,0,2c-0.6,0.9-0.8,1.9-1,3.4c1.3-1.3,2.8-1.2,3.8-0.8c1.2,0.5,2.1,0.2,3.1,0
			c1.3-0.3,2.4-0.1,3.6,0.4c0.5,0.2,1,0.3,1.5,0c1.3-0.9,2.8-0.5,4.1-0.2c2.5,0.5,4.1-0.7,4.2-3.2c0.1-1.1-0.8-2.3,0-3.4
			c0.7,1.4,0.6,3,0.8,4.5c0.3,1.8,0.6,3.6,0.3,5.4C129.4,207.7,129.2,208.3,129.8,208.7z M107.6,205.7c-0.1-0.2-0.2-0.2-0.4-0.2
			c-0.1,0-0.2,0.2-0.2,0.2c0,0.2,0.1,0.3,0.3,0.2C107.4,206,107.5,205.8,107.6,205.7z"/>
		<path class="st8" d="M83.8,236.8c1.8,0.3,2.7-1.3,3.7-2.2c1.3-1.2,2.6-1.1,4.1-1.1c1.6,0.1,3.3,0.8,4.9-0.2c0.2-0.1,0.5-0.1,0.7,0
			c2.3,1.2,4.8,0.1,7.1,0.3c2.4,0.2,4.9-0.8,7.3,0.2c0.4,0.2,0.8,0,1.2-0.1c1.5-0.4,3-0.6,4.5,0.2c0.4,0.2,1.1,0.5,1.5,0.2
			c1.9-1.6,3.9-0.5,5.9-0.5c0.8,0,1.1-0.2,1.6-0.8c1.8-2.4,1.5-5.3,2.2-7.9c0.1-0.5,0-1.2,0.8-1.3c-0.3,3.3-0.7,6.7-1.8,9.9
			c-0.2,0.1-0.2,0.2-0.1,0.4c0,0.5-0.2,0.8-0.4,1.2c-0.4,0.1-0.5,0.3-0.2,0.7c0,0.2-0.1,0.4-0.1,0.6c-0.4,0.1-0.6,0.3-0.2,0.7
			c0,0.2-0.1,0.4-0.1,0.6c-0.4,0.1-0.6,0.3-0.2,0.7c-0.1,0.5-0.3,1-0.4,1.5c-0.6,0.2-0.8,0.6-0.9,1.1c-0.9,3.3-2.3,6.4-3.7,9.5
			c-0.6,1.3-2.1,2.1-2.1,3.8c0,0.4-0.6,0.1-0.7-0.3c-0.2-1-1-0.8-1.7-0.8c-2.9,0.2-5.8,0.4-8.6-0.4c-1.9-0.5-3.6,0.3-5.5,0.2
			c-2.8-0.1-5.7,0.2-8.5,0.2c-3.8,0-7.7,0.2-11.5-0.2c-1.1-0.1-2.1,0.6-3.3,0.4c-2.9-0.3-5.9,0-8.8-0.6c-1-0.2-1.9,0.6-2.9,1
			c-0.8,0.3-1.5,0.8-2.1-0.3c0,0,0,0,0,0c0.8,0.1,1.2-0.2,1.2-1.1c2.3-1.9,4.5-3.8,6.8-5.7c0.4-0.1,0.6-0.3,0.6-0.7l0,0
			c0.4,0,0.6-0.2,0.7-0.6l0,0c1.2-0.1,1.9-0.8,2.1-2c0.3-0.3,0.6-0.5,0.9-0.8c0.4,0,0.6-0.2,0.7-0.6l0,0c0.1-0.1,0.2-0.2,0.3-0.3
			c0,0,0,0,0,0c0.1-0.1,0.2-0.2,0.3-0.3l0,0c1.5-0.3,2.4-1.3,2.8-2.7l0,0c0.1-0.1,0.2-0.2,0.3-0.3c0,0,0,0,0,0
			c0.1-0.1,0.2-0.2,0.3-0.3C82.9,237.7,83.3,237.2,83.8,236.8z"/>
		<path class="st11" d="M128.2,197.2c-0.8,1.1,0,2.3,0,3.4c-0.1,2.5-1.7,3.6-4.2,3.2c-1.3-0.3-2.8-0.6-4.1,0.2
			c-0.5,0.3-0.9,0.2-1.5,0c-1.1-0.5-2.3-0.7-3.6-0.4c-1,0.3-1.9,0.6-3.1,0c-1-0.4-2.5-0.6-3.8,0.8c0.2-1.5,0.5-2.5,1-3.4
			c0.4-0.7,0.4-1.3,0-2c-2.5-4.4-4.8-8.8-7.8-12.9c-0.4-0.5-0.7-1.2-1.5-1.1c0,0,0,0,0,0c-0.4-1.8-1.3-3.3-3.1-4l0,0
			c0-1.1-0.5-1.7-1.6-1.8l0.1,0c-0.1-0.1-0.2-0.2-0.3-0.4l0,0c0.1-0.4,0-0.9-0.2-1.3c-0.4-1.2,0.2-1.3,1.3-1.6c3.5-1,6.9,0.4,10.3,0
			c3.2-0.3,6.5,0.6,9.7-0.6c0.7-0.3,1.4,0.3,2.1,0.3c0.7,0,1.5,0.3,2-0.4c0.4-0.6,0.2-1.4-0.1-2.1c-0.6-1.2-1.2-2.5-1.8-3.7
			c-0.3-0.6-0.6-1.2-0.6-1.9c1.7,2,2.7,4.5,3.8,6.8c2,4.1,3.7,8.2,4.8,12.6c-0.1,0.1-0.2,0.3-0.2,0.4c0.3,3.1,1.4,5.9,1.9,8.9
			c0,0.1,0.2,0.2,0.4,0.3C128.1,196.9,128.2,197.1,128.2,197.2z"/>
		<path class="st12" d="M-20.1,382.7c-3.3-0.1-3.3-0.1-3.9-3.4c-0.7-3.2-2.6-5.8-3.7-8.8c-0.1-0.3-0.4-0.6-0.7-0.5
			c-1.2,0.3-2,1.3-3.2,1.7c-0.4,0.1-0.6,1.1-0.6,1.8c0,1.1,0.1,2.2,0.2,3.2c0,0.6,0.4,0.9,0.9,1.1c2.5,0.9,2.6,1.3,1.7,3.8
			c-0.2,0.6-0.4,0.6-0.8,0.5c-1.9-0.5-3.9-0.4-5.8-0.8c-0.8-0.1-1.6,0-1.7-1.2c-0.1-1.2,0.6-2.3,1.5-2.3c1.9-0.1,1.7-1.1,1.6-2.4
			c-0.5-5.9-1.1-11.7-1.3-17.7c0-1.4-0.5-2.2-2.1-1.8c-0.7,0.2-1.1-0.2-1.2-0.8c0-0.3-0.1-0.6-0.1-0.9c0-4.4,0.8-3.8,4.4-2.9
			c0.8,0.2,1.1,0.9,1.2,1.8c0.6,4.5,0.3,9,0.6,13.5c0.1,0.7-0.3,1.8,0.4,2.1c0.6,0.2,1.2-0.7,1.8-1.1c0.8-0.5,1.5-1.2,2.3-1.6
			c2-1.1,3.3-2.5,3.1-5c-0.1-0.9,0.5-1.3,1.4-1.3c1.7,0.1,3.5-0.6,4.9,1c1.1,1.3,1,2.7-0.6,3.3c-2.1,0.8-3.3,2.8-5.3,3.8
			c-0.5,0.3-0.4,0.8-0.1,1.2c1.4,2.9,2.8,5.7,4.1,8.6c0.4,0.9,1.2,0.7,1.8,0.7c0.6,0.1,1.5-0.2,1.7,0.5c0.3,1.1,0.8,2.2,0.4,3.3
			c-0.3,0.8-1.2,0.4-1.8,0.4C-19.4,382.7-19.8,382.7-20.1,382.7z M-22.4,364.9c-1.2,0.2-2.2,0.8-2.9,1.9
			C-24.1,366.4-23.2,365.8-22.4,364.9z M-24.8,374.7c0.1-1-0.4-1.7-1.1-2.3C-25.9,373.3-25.5,374-24.8,374.7z"/>
		<path class="st7" d="M19.1,376.4c0.9-0.1,0.9,0.8,1.6,0.6c-0.2-0.7-0.1-1.6-1.2-1.6c-0.4,0-0.4-0.3-0.3-0.5c0.7-1.6-0.2-3.3,0.5-5
			c0.7-1.6,1.4-3.2,2.4-4.7c1-1.6,2.5-2.3,4.4-2.4c2.6-0.1,5.1,0.2,7.4,1.7c0.9,0.6,1.1,0.2,1.2-0.7c0.2-2.5,0.3-4.9,0.5-7.4
			c0.1-0.7-0.3-0.9-0.8-1.1c-1.6-0.8-1-2.1-0.8-3.3c0.1-1.2,1-1.3,1.9-1.3c1.2,0,2.4-0.1,2.7,1.6c0.1,0.6,0.4,1.1,0.3,1.8
			c-0.3,3.3-0.6,6.5-0.8,9.8c-0.2,3.5-0.7,6.9-0.5,10.4c0.1,1.2-0.2,2.5-0.4,3.7c-0.1,0.8-0.1,1.5,0.9,1.8c0.8,0.2,1,0.8,0.9,1.6
			c-0.1,0.8-0.7,1-1.4,1c-1.2,0.1-2.4,0.1-3.7,0c-0.9,0-0.9-0.7-1-1.3c-0.3-1.9-0.3-1.9-2-1c-1.3,0.7-2.7,1.3-4.2,1.6
			c-2.3,0.5-3.9-0.8-5.4-2.3C20.4,378.6,19.9,377.5,19.1,376.4z M29.7,378.4c-0.7-0.1-1.5-0.1-2.4,0.7C28.4,379,29.1,379,29.7,378.4
			c0.1,0,0.1,0,0.2,0C29.8,378.4,29.8,378.3,29.7,378.4C29.7,378.3,29.7,378.4,29.7,378.4z M25.7,378.5c5.3-0.2,8.4-3,8.4-8.1
			c0-0.6-0.2-1.1-0.6-1.7c-1.3-2.3-3.5-2.3-5.8-2.3c-3.3-0.1-4.4,0.7-5.3,3.9c-0.3,1.1-0.6,2.3-0.7,3.5
			C21.5,376.4,23.3,378.5,25.7,378.5z M25.2,380.2c-1.2-0.9-2.2-1-3.6-1.5C22.7,379.8,23.6,380.3,25.2,380.2z M23.3,366
			c-1.2,0.2-1.5,1-1.5,2C22.3,367.4,22.8,366.7,23.3,366z"/>
		<path class="st7" d="M94.4,359.8c-1.4,0.2-3-0.1-3.4,1.8c-0.4,1.8,0.5,3.6,2.3,4.4c2.2,0.9,4.4,1.5,6.6,2.3
			c5.4,2.1,5.8,7.8,2.4,11c-3.5,3.3-6.8,3.6-10.9,1c-1-0.6-2.1-1-3-1.8c-0.4-0.4-0.7-0.4-1,0.1c-0.5,1-1.3,0.6-2,0.4
			c-0.8-0.2-1.1-0.7-1.3-1.5c-0.4-1.9,0.1-3.7,0.3-5.5c0.2-1.4,1.4-1,2.2-1.2c0.9-0.2,1.1,0.5,1.2,1.2c0.2,1.8,1.2,3.1,2.7,4.1
			c1.8,1.1,3.3,2.6,5.7,2.4c2.3-0.2,4.2-1.8,4.4-4.1c0.1-1.5-1.8-3.7-3.6-4.1c-2.3-0.6-4.8-0.8-6.8-2.2c-1.8-1.2-3.1-2.5-3.2-4.9
			c-0.2-2.4,1.4-3.4,2.8-4.8c2.9-2.9,5.9-0.8,8.9-0.2c0.4,0.1,0.9,0.3,1.3,0.5c0.7,0.3,1.2,0.3,1.3-0.7c0.2-1.4,1.3-1.2,2.3-1.3
			c1-0.1,1.1,0.7,1.2,1.4c0.1,1.3,0.4,2.6,0.2,4c-0.1,0.7-0.1,1.5-0.9,1.7c-0.9,0.2-1.7,0.1-2.4-0.7
			C99.7,361.1,97.1,360.4,94.4,359.8z M99.6,369.7c0.9,0.5,1.8,1,2.7,1.6C101.8,370.1,100.9,369.6,99.6,369.7z M97.8,368.3
			c-0.7-0.7-1.5-1-2.4-0.7C96.2,368.2,97,368.5,97.8,368.3z M95.2,381.2c0.9,0.4,1.5,0.3,2,0C96.6,380.9,96,380.8,95.2,381.2z"/>
		<path class="st7" d="M127.2,360.4c0,0.8,0,1.3,0,1.7c0,0.7-0.1,1.4-0.8,1.7c-0.8,0.3-1.8,0.3-2.3-0.4c-1.2-1.7-3.1-1.9-4.6-2.9
			c-1.3-0.8-2.6-0.6-3.9-0.6c-1.9,0.1-2.7,1.3-2.4,3.1c0.4,2,2,3.1,4.6,3.7c2.6,0.6,5.1,1.4,7.1,3.4c2.2,2.1,2.6,5.4,0.8,7.8
			c-2.9,3.8-6.9,5.6-11.8,2.5c-1-0.7-2.1-1.3-3.2-1.9c-0.4-0.2-0.7-0.5-1,0.1c-0.5,1-1.4,0.6-2.2,0.4c-0.8-0.2-1.1-0.8-1.2-1.6
			c-0.3-1.9,0.1-3.7,0.4-5.5c0.2-1.3,1.4-0.9,2.3-1.1c0.8-0.2,0.9,0.6,1.1,1.2c0.8,3.3,4.8,6.4,8.2,6.4c2.5,0,4.3-1.6,4.6-4.1
			c0.2-1.4-1.8-3.7-3.6-4.1c-2.1-0.6-4.3-0.8-6.3-1.9c-2.2-1.3-3.9-2.8-3.8-5.7c0-0.6,0.1-1.2,0.4-1.7c1-1.9,2.9-2.8,4.5-4.1
			c0.3-0.3,0.8-0.2,1.2-0.1c2.2,0.6,4.6,0.8,6.7,1.9c0.9,0.4,1.4,0.5,1.6-0.8c0.1-1.2,1.2-1.1,2.1-1.1c0.9-0.1,1.3,0.4,1.3,1.3
			C127,358.9,127.1,359.8,127.2,360.4z M124.6,371.1c-0.6-1.1-1.5-1.5-3-1.8C122.6,370.4,123.6,370.8,124.6,371.1z M120,368.4
			c-0.7-0.8-1.5-0.9-2.4-0.7C118.4,368.2,119.2,368.4,120,368.4z M117.4,381.1c1.2,0.5,1.2,0.5,2.2-0.1
			C118.8,381,118.1,380.8,117.4,381.1z"/>
		<path class="st12" d="M-1.4,360.9c0.5,0,1,0,1.5,0c1-0.1,1.4,0.1,1.2,1.3c-0.2,1.4,0.2,1.6,1.5,1.1c0.9-0.3,1.7-0.7,2.6-1
			c4.5-1.5,8.4,0.5,9.7,5.1c0.4,1.5,0.7,3,0.4,4.6c-0.4,1.9,0.3,3.9-0.2,5.8c-0.2,0.9,0.7,0.6,1.1,0.7c0.6,0.1,1.6-0.3,1.7,0.8
			c0.1,1.1,0,2.5-1.4,2.7c-1.9,0.3-3.9,0.4-5.8,0.6c-0.6,0-1.2-0.4-1.3-1.1c-0.2-1-0.3-1.9,0.1-2.9c1.2-2.7,1.5-5.5,1.6-8.4
			c0-3-2.7-4.7-5.4-3.3c-3.6,1.8-5.2,5.4-4.3,9.2c0.2,1,1.3,1,1.7,2c0.8,2.3,0.4,3.2-2,3.2c-0.4,0-0.8,0-1.2,0
			c-2.4,0-3.1-0.7-2.9-3.1c0-0.2,0-0.5,0.1-0.6c1.6-0.5,0.9-1.8,0.9-2.8c-0.1-2.7,0.3-5.3,0.1-8c-0.1-1-0.3-1.7-1.6-1.3
			c-0.9,0.2-1.4-0.1-1.4-1.2C-4.6,361.2-4.3,360.9-1.4,360.9z M3.7,365.4c-0.6,0.3-1.3,0.3-1.7,1.2c0.9,0,1.4-0.5,1.9-1
			c0.1-0.1,0.1-0.2,0.2-0.3C4,365.3,3.8,365.4,3.7,365.4z M0.6,366.4c0.4-0.7,0.7-1.4-0.5-2.1c0,0.9,0,1.5,0,2.1
			c0.5,0.9,0.1,2.1,0.9,3.2C1.4,368.3,1.6,367.2,0.6,366.4z M-3.3,362.1c1,0.4,1.9,0.5,3.1-0.4C-1.5,361.4-2.4,361.7-3.3,362.1z
			 M13.7,380.8c-0.8-0.6-1.4-0.6-2.2,0C12.2,381.4,12.9,381.3,13.7,380.8z M0.1,379.7c0.6,0.1,1.3,0.5,2-0.2
			C1.3,379.3,0.7,379.2,0.1,379.7z M-2.2,363.8c0.7,0,0.8,0.9,1.4,0.4c0.1-0.1,0.1-0.5,0-0.7C-1.2,363-1.6,363.4-2.2,363.8z
			 M12.5,368.8c0.3-0.8,0.2-1.2-0.4-1.6C11.9,367.8,12.1,368.2,12.5,368.8z"/>
		<path class="st12" d="M42.4,371.7c0-1.7,0-3.4,0-5.1c0-0.9-0.3-1.5-1.4-1.2c-1.2,0.3-1.8-0.1-1.6-1.4c0.1-0.5,0-0.9,0.1-1.4
			c0.2-1.1,0.6-2.1,2.1-1.7c0.5,0.1,1,0,1.5,0c1.4-0.1,2.6-0.1,2.3,1.9c-0.1,0.7,0.4,0.9,1.1,0.6c1.4-0.6,2.8-1.2,4.3-1.6
			c2.8-0.6,6,0.9,7.4,3.4c0.9,1.7,1.4,3.4,1.3,5.3c0,2.3-0.1,4.6-0.3,6.9c-0.1,1,0.5,0.9,1.1,1c0.6,0.1,1.7-0.4,1.7,0.7
			c0,1,0.1,2.4-1.3,2.7c-2,0.4-4.1,0.5-6.1,0.6c-0.8,0-1.1-0.7-1.3-1.5c-0.3-1.8,0.6-3.3,1-4.9c0.5-1.9,0.6-3.9,0.8-5.8
			c0.2-3-2.7-4.8-5.4-3.5c-3.6,1.8-5.2,5.3-4.2,9.2c0.1,0.4,0.2,0.7,0.6,0.8c1.3,0.4,1.3,1.5,1.4,2.5c0.1,1.2-0.3,2.1-1.9,1.9
			c-0.6-0.1-1.1,0-1.7,0c-2.4,0-2.9-0.5-2.9-2.9c0-0.2,0-0.5,0.1-0.6c1.9-1.3,0.6-3.1,1-4.7C42.3,372.6,42.3,372.1,42.4,371.7
			C42.3,371.7,42.3,371.7,42.4,371.7z M47.8,365.4c-0.7,0.2-1.5,0.4-2,1.3c1.1,0,1.7-0.6,2.2-1.1c0.2-0.1,0.4-0.2,0.3-0.4
			C48.1,365,47.9,365.2,47.8,365.4z M44.5,366.7c0,0.8-0.2,1.7,0.4,2.5C44.9,368.3,45.7,367.4,44.5,366.7c0.3-0.9,0.9-1.8-0.5-2.6
			C44.1,365.1,43.3,366,44.5,366.7z M43.7,361.7c-1.3-0.3-2.1-0.1-3.2,0.5C41.7,362.4,42.5,362.5,43.7,361.7z M56.4,380.3
			c-0.2,0.2-0.9-0.1-0.8,0.5c0,0.5,0.5,0.3,0.9,0.3c0.4,0,0.9,0.1,0.9-0.5C57.3,380.3,56.8,380.4,56.4,380.3z M46,379.6
			c-0.6-0.3-1.3-0.5-2,0.2C44.8,380,45.4,380.1,46,379.6z M42.6,363.2c-0.2,0.1-0.6,0.2-0.5,0.5c0.1,0.3,0.5,0.5,0.8,0.6
			c0.4,0.1,0.4-0.3,0.4-0.6C43.3,363.4,43.1,363.2,42.6,363.2z M57.7,367.5c-0.3,0.6-0.3,1,0.1,1.4c0.1,0.1,0.3,0,0.4,0
			C58.4,368.3,58.2,367.9,57.7,367.5z M56.2,367.6c-0.3,0.4-0.1,0.7,0.2,1c0,0,0.3-0.1,0.3-0.1C56.8,368,56.7,367.7,56.2,367.6z"/>
		<path class="st12" d="M76.4,371c-2.8-0.1-5.5-0.2-8.3-0.4c-1.4-0.1-1.9,0.4-1.7,1.9c0.4,4.2,3.1,7.2,6.6,7.3c2,0,4-1.7,4.4-3.6
			c0.2-0.9,0.9-1.6,1.8-2c0.7-0.3,1.2,0.4,1.5,0.8c0.9,0.9,1.6,2,2.4,3c0.6,0.8-0.3,1.2-0.7,1.6c-0.3,0.4-0.7,0.8-1.2,0.2
			c-0.6-0.7-1.2-0.5-1.7,0c-3.2,2.6-6.8,3.1-10.7,2c-1.9-0.5-3.2-1.9-3.8-3.6c-2.1-5.1-1.8-10.1,1.4-14.8c1.3-2,3.3-2.4,5.3-2.6
			c4.7-0.3,8.6,2.8,9.4,7.4c0.3,1.7-0.6,2.7-2.3,2.7c-0.7,0-1.4,0-2.2,0C76.4,370.9,76.4,370.9,76.4,371z M75.4,364.3
			c-0.4,0.1-0.7-0.1-1-0.2c-2.2-0.9-4.1-0.2-6,0.8c-0.6,0.3-1.3,1-1.2,1.7c0.1,0.8,1.1,0.6,1.7,0.7c2.4,0.3,4.8,0.3,7.2,0.8
			c0.5,0.1,1.1,0.6,1.5-0.2c0.3-0.6-0.1-1.2-0.5-1.7C76.5,365.5,75.6,365.2,75.4,364.3c0.2-0.1,0.7,0.2,0.7-0.3
			c0-0.1-0.1-0.2-0.2-0.2C75.4,363.6,75.4,364,75.4,364.3z M74.1,369.8c-1.6-0.5-3.2-0.7-4.9-0.4C70.8,369.7,72.4,370.2,74.1,369.8z
			 M71.8,368.4c-0.7-0.4-1.4-0.6-2.6-0.2C70.3,368.6,71,368.6,71.8,368.4z M74.7,363.5c0.2,0,0.3-0.1,0.3-0.2c0-0.4-0.3-0.5-0.6-0.5
			c-0.1,0-0.3,0.2-0.3,0.2C74.1,363.4,74.4,363.5,74.7,363.5z"/>
		<path class="st12" d="M-14.2,378.9c-1.1-0.4-1.3-1.2-1.2-2c0.2-0.9,1.1-0.7,1.7-0.7c1.3,0.1,1.6-0.6,1.7-1.8
			c0.1-2.9,0.2-5.7,0.4-8.6c0.1-2,0.1-2-1.9-2.3c-1.6-0.2-2-0.9-1.5-2.4c0.2-0.5,0.4-0.8,1-0.8c1.7,0,3.4,0,5.1,0
			c0.9,0,1.2,0.5,1.4,1.3c0.6,2.9-0.2,5.7-0.2,8.6c0,0.9-0.1,1.8-0.2,2.8c-0.1,1.3-0.5,2.7,1.7,2.5c0.5,0,0.7,0.5,0.8,1
			c0.4,1.2,0.2,2.4,0.4,3.7c0.1,0.7-0.4,0.8-1,0.8c-2.7,0-5.4,0.1-8.2-0.2c-0.6-0.1-1.2-0.3-1.4-1C-15.7,379-14.9,379.1-14.2,378.9z
			 M-11,372.5c0.8-2.7,0.8-5.5,0.6-8.2C-11.3,366.9-10.9,369.7-11,372.5z M-13.7,361.9c1,0.2,1.7,0.4,2.6-0.2
			C-12.1,361.5-12.8,361.3-13.7,361.9z M-11.6,377.8c-1.1-0.3-1.8-0.4-2.6-0.1C-13.3,378.2-12.7,378.2-11.6,377.8z"/>
		<path class="st12" d="M-9.7,357.7c-2.3,0-3.4-1-3.3-3c0.1-1.3,1.8-2.4,3.6-2.4c1.5,0,2.6,1.2,2.6,2.7
			C-6.7,356.7-7.9,357.8-9.7,357.7z"/>
		<path class="st7" d="M99.8,279.4c0-0.5,0.3-0.9,0.6-1.2c3.3-2.6,5.9-5.8,8.6-8.9c0.4-0.4,0.6-1,1.3-1c-0.5,1.5-1.8,2.5-2.8,3.7
			c-1.9,2.3-4.1,4.4-6.3,6.5C100.8,279,100.4,279.4,99.8,279.4z"/>
		<path class="st10" d="M128.1,196.7c-0.1-0.1-0.3-0.2-0.4-0.3c-0.5-3-1.7-5.9-1.9-8.9c0-0.1,0.1-0.3,0.2-0.4
			C127,190.2,128.1,193.3,128.1,196.7z"/>
		<path class="st8" d="M-48.7,210.6c0.9,1.1,0.9,3.6,0,4.6C-48.7,213.7-48.7,212.1-48.7,210.6z"/>
		<path class="st6" d="M-45,238.4c1.2,0.7,1.5,1.8,1,3.1C-44.6,240.5-44.8,239.4-45,238.4z"/>
		<path class="st8" d="M-48.4,205.3c1,1.4,0.2,2.8-0.1,4.1C-48.5,208.1-48.8,206.7-48.4,205.3z"/>
		<path class="st11" d="M117.4,167.7c-1.4-0.4-1.5-1.7-1.9-2.8C116.5,165.5,117,166.6,117.4,167.7z"/>
		<path class="st6" d="M-43.4,243.3c0.9,0.3,1.1,0.8,0.6,1.6C-43,244.3-43.2,243.8-43.4,243.3z"/>
		<path class="st5" d="M129.8,208.7c-0.6-0.4-0.4-1-0.4-1.6C130,207.6,130,208.1,129.8,208.7z"/>
		<path class="st7" d="M110.3,268.3c0-0.7,0.4-0.9,1-1C111.1,267.8,110.9,268.2,110.3,268.3z"/>
		<path class="st5" d="M129.4,218.9c0.1-0.3,0.1-0.6,0.2-0.9C130,218.4,129.8,218.7,129.4,218.9z"/>
		<path class="st11" d="M115.5,164.9c-0.6-0.1-0.6-0.5-0.6-1C115.2,164.1,115.5,164.4,115.5,164.9z"/>
		<path class="st6" d="M126.4,236.8c-0.3-0.4-0.2-0.6,0.2-0.7C126.6,236.4,126.6,236.7,126.4,236.8z"/>
		<path class="st6" d="M126,238.1c-0.3-0.4-0.1-0.5,0.2-0.7C126.3,237.7,126.3,237.9,126,238.1z"/>
		<path class="st6" d="M126.7,235.6c-0.3-0.3-0.2-0.5,0.2-0.7C126.9,235.2,126.9,235.4,126.7,235.6z"/>
		<path class="st6" d="M127.3,233.8c-0.1-0.2-0.1-0.3,0.1-0.4C127.4,233.5,127.3,233.7,127.3,233.8z"/>
		<path class="st10" d="M94.5,177.6c0.2,0.4,0.3,0.8,0.2,1.3c-0.5-0.4-1-0.9-1.4-1.3c-0.4-0.6-0.9-1.1-1.5-1.6
			c-0.2-0.2-0.4-0.4-0.6-0.6c-0.2-0.2-0.4-0.4-0.6-0.6c-0.2-0.4-0.6-0.6-0.9-0.8l0,0c0-0.1-0.1-0.1-0.2-0.1
			c-0.3-0.5-0.7-0.8-1.2-1.1l0,0c-0.2-0.2-0.5-0.3-0.7-0.5c-0.1-0.1-0.3-0.2-0.4-0.3c-0.3-0.4-0.7-0.6-1.2-0.8
			c-0.3-0.2-0.6-0.4-0.9-0.6c-0.2-0.1-0.4-0.2-0.7-0.4c0-0.1-0.1-0.1-0.2-0.1c-0.4-0.3-0.8-0.6-1.2-0.6c-0.3-0.2-0.6-0.3-1-0.5
			c-0.4-0.3-0.9-0.6-1.5-0.6c-0.2-0.1-0.4-0.1-0.7-0.2c-0.1-0.1-0.1-0.1-0.3-0.1c-0.3-0.2-0.6-0.3-1-0.3c-0.1-0.1-0.1-0.1-0.2,0
			c-0.3-0.2-0.6-0.3-1-0.3c-0.1-0.1-0.1-0.1-0.2,0c-0.1,0-0.2,0-0.4-0.1c-0.8-0.3-1.5-0.4-2.3-0.3c-0.2-0.2-0.5-0.2-0.8-0.1
			c-0.5-0.2-1.1-0.2-1.6,0c-0.7-0.1-1.3-0.2-2,0.1c-0.6-0.2-1.2,0-1.8,0.2c-0.1,0-0.3,0.1-0.4,0.1l0-0.1c0,0-0.1,0-0.1,0
			c-0.4,0.1-0.9,0.2-1.3,0.3c-0.5,0.2-1,0.3-1.5,0.5c-0.2,0.1-0.4,0.1-0.6,0.2l0,0c-0.3,0.1-0.7,0-0.9,0.3c-0.2,0.1-0.4,0.2-0.7,0.3
			c-0.7,0.2-1.3,0.4-1.9,0.9c-0.8,0.3-1.5,0.7-2.2,1.3c-0.1,0.1-0.3,0.2-0.4,0.2c-0.2,0.1-0.3,0.2-0.5,0.3c-0.1,0.1-0.3,0.2-0.4,0.3
			c-0.2,0.1-0.3,0.2-0.5,0.4c-0.1,0.1-0.3,0.2-0.4,0.3c-0.3,0.2-0.5,0.4-0.8,0.6c-0.1,0.1-0.3,0.2-0.4,0.4
			c-7,5.5-12.1,12.6-16.9,19.9c-0.2-0.2-0.4-0.3-0.4-0.4c-4.2-7.4-9.2-14.2-15.4-20c0,0,0.1-0.1,0.1-0.1c0.8,0,1.3,0.6,1.8,1.1
			c3.1,2.9,5.7,6.2,8.2,9.6c0.2,0.2,0.3,0.5,0.8,0.6c-1-2.4,0.9-2.1,2.1-2.2c1.3-0.2,2.7-0.5,3.8,0.6c0.3,0.3,0.8,0.3,1.2,0.2
			c0.6-0.2,1.2-0.2,1.7,0.1c2.4,1.3,3.4-0.5,4.7-1.9c4.4-5,9.1-9.7,15.3-12.5c7.9-3.6,15.7-3.1,23.2,1.6
			C88.7,172.1,91.5,174.9,94.5,177.6z"/>
		<path class="st10" d="M21.7,172.4c0.1-0.1,0.2-0.2,0.3-0.4c0.4,0.2,0.6,0.5,0.7,0.9c0,0-0.1,0.1-0.1,0.1
			C22.1,172.9,21.8,172.7,21.7,172.4z"/>
		<path class="st13" d="M73.5,246.6c-2.3,1.9-4.5,3.8-6.8,5.7c-0.5,0.2-0.9,0.6-1.2,1.1c0,0,0,0,0,0c-0.6,0.3-1.1,0.7-1.5,1.3
			l0.1,0.1l-0.1-0.1c-4.4,3.4-8.8,6.8-13.3,10.2c-3.4,2.6-6.9,5.1-10.9,6.9c-1,0.5-2.1,0.9-3.3,0.5c-0.2-0.4-0.4-0.8-0.7-1.1
			c0.4-0.5,0.3-1.1,0.3-1.6c0-11.4,0-22.8,0-34.3c0.1,0,0.3-0.1,0.4-0.1c0.5,0,1,0.1,1.5,0.1c9.6,0,19.1,0,28.7,0
			c1.5,0,1.9-0.5,1.9-1.9c-0.1-10.1,0-20.2,0-30.2c0-0.6,0.1-1.2-0.2-1.8c-0.1-1.1,0.7-1.2,1.5-1.2c4.7,0,9.4,0,14.2,0
			c7.8,0,15.6,0,23.4-0.1c0.2,0.1,0.5,0.1,0.7,0.2c-0.3,2.6-1.6,4.9-2.7,7.3c-3.6,7.4-8.2,14.1-13.5,20.3c-1.5,1.8-2.8,3.7-4.5,5.3
			c-1.2,0.6-2.1,1.6-2.7,2.8c-0.3,0.3-0.6,0.6-0.9,0.9c-0.4,0.4-0.9,0.9-1.3,1.3c-0.1,0.1-0.2,0.2-0.3,0.3c0,0,0,0,0,0
			c-0.1,0.1-0.2,0.2-0.3,0.3c0,0,0,0,0,0c-0.9,0.9-1.9,1.8-2.8,2.7c0,0,0,0,0,0c-0.1,0.1-0.2,0.2-0.3,0.3c0,0,0,0,0,0
			c-0.1,0.1-0.2,0.2-0.3,0.3c0,0,0,0,0,0c-0.2,0.2-0.5,0.4-0.7,0.6c-0.3,0.3-0.6,0.5-0.9,0.8c-0.8,0.6-1.5,1.2-2.1,2c0,0,0,0,0,0
			c-0.2,0.2-0.4,0.4-0.7,0.6c0,0,0,0,0,0C73.8,246.1,73.6,246.3,73.5,246.6z"/>
		<path class="st14" d="M36.1,235.2c0,11.4,0,22.8,0,34.3c0,0.6,0.1,1.1-0.3,1.6c-0.2-0.2-0.5-0.3-0.7-0.5c-0.2-0.2-0.4-0.4-0.6-0.6
			c-1.2-1.3-2.6-2.6-4-3.7c-0.4-0.5-0.8-1-1.3-1.3c-2.2-2.2-4.3-4.4-6.7-6.4c-0.4-0.4-0.9-0.9-1.3-1.3c-6.6-6.6-12.9-13.4-19.3-20.2
			c-0.1-0.1-0.2-0.2-0.3-0.3c-0.2-0.2-0.4-0.4-0.6-0.7c-0.1-0.1-0.2-0.2-0.3-0.3c0,0,0,0,0,0c-0.1-0.1-0.2-0.2-0.3-0.3c0,0,0,0,0,0
			c-0.1-0.1-0.2-0.2-0.3-0.3c0,0,0,0,0,0c0-0.2-0.1-0.3-0.4-0.3c-7.4-8.6-14.6-17.2-21.5-26.2c-0.1-0.1-0.2-0.2-0.3-0.3c0,0,0,0,0,0
			c-0.1-0.3-0.3-0.6-0.6-0.6c0,0,0,0.1,0,0.1c-0.1-0.1-0.2-0.3-0.3-0.4c-0.1-0.2-0.2-0.3-0.3-0.5c0-0.5-0.3-0.7-0.6-1
			c-0.1-0.1-0.1-0.2-0.2-0.3c-0.2-0.4-0.4-0.7-0.7-0.9c0,0,0,0,0,0c-0.2-0.5-0.5-0.9-0.9-1.2c0,0,0,0,0,0c-0.2-0.5-0.5-0.9-0.9-1.3
			c0,0,0,0,0,0c-0.1-0.4-0.3-0.7-0.7-0.9c0,0,0,0,0,0c-0.1-0.1-0.2-0.3-0.3-0.4c0,0,0.1,0,0.1,0c-0.1-0.4-0.3-0.7-0.7-0.9
			c0,0,0,0,0,0c-0.1-0.4-0.3-0.7-0.6-0.9c0,0,0,0,0,0c-0.1-0.1-0.2-0.3-0.3-0.4c0,0,0.1,0,0.1,0c-0.1-0.4-0.3-0.7-0.7-0.9
			c0,0,0,0.1,0,0.1c-0.1-0.2-0.2-0.3-0.3-0.5c0,0,0-0.1,0-0.1c0-0.2,0-0.5,0-0.7c9.7,0,19.3,0,29,0.1c2.3,0,2.3,0,2.3,2.3
			c0,11.4,0,22.8,0,34.2c0,0.7-0.2,1.4,0.3,2.1c0.1,0,0.2,0,0.3,0c0.4,0,0.8,0,1.2,0c-0.2,0.9-0.2,1.8,0.5,2.6
			c3.1,3.3,6.1,6.6,9.3,9.9C17.7,252.8,22.9,258,28,263c1.9,1.9,3.9,3.6,5.8,5.5c0.3,0.3,0.6,0.7,1,0.5c0.5-0.2,0.3-0.7,0.4-1.1
			c0-0.4,0-0.8,0-1.2c0-9.1,0-18.2,0-27.3c0-1.4,0-2.8-0.3-4.1c0.3,0,0.6,0,0.9,0C35.9,235.2,36,235.2,36.1,235.2z M0.4,215.5
			c0-5.4,0-10.9,0-16.3c0-1.3-0.4-1.9-1.8-1.8c-8.7,0-17.4,0-26.1,0c-0.4,0-1-0.2-1.2,0.4c-0.2,0.5,0.3,0.8,0.5,1.2
			c1.9,2.5,3.8,5,5.6,7.5c6.5,9,13.8,17.3,21,25.8c0.4,0.4,0.7,1.2,1.4,1c0.7-0.2,0.5-1,0.5-1.6C0.4,226.2,0.4,220.8,0.4,215.5z"/>
		<path class="st8" d="M22.4,258.6c2.3,2,4.5,4.2,6.7,6.4c-0.4,0.4-0.7,0.2-1-0.1c-1.8-1.7-3.4-3.5-5.4-5.1
			C22.4,259.6,21.8,259.2,22.4,258.6z"/>
		<path class="st8" d="M30.5,266.4c1.5,1.1,2.8,2.4,4,3.7C33.1,269.9,30.5,267.5,30.5,266.4z"/>
		<path class="st8" d="M35.1,270.7c0.2,0.2,0.5,0.3,0.7,0.5c0.2,0.4,0.4,0.8,0.7,1.1C35.7,272,34.8,271.8,35.1,270.7z"/>
		<path class="st8" d="M63.9,254.6c0.3,0.1,0.8,0,0.7,0.5c0,0.1-0.1,0.2-0.2,0.2C63.9,255.4,64,254.9,63.9,254.6
			C63.9,254.6,63.9,254.7,63.9,254.6L63.9,254.6z"/>
		<path class="st7" d="M1.6,236.8c0.1,0.1,0.2,0.2,0.3,0.3C1.8,237,1.7,236.9,1.6,236.8z"/>
		<path class="st7" d="M-0.2,234.9c0.2,0,0.3,0.1,0.4,0.3C0,235.1-0.1,235-0.2,234.9z"/>
		<path class="st7" d="M0.1,235.2c0.1,0.1,0.2,0.2,0.3,0.3C0.3,235.4,0.2,235.3,0.1,235.2z"/>
		<path class="st7" d="M0.4,235.5c0.1,0.1,0.2,0.2,0.3,0.3C0.6,235.8,0.5,235.6,0.4,235.5z"/>
		<path class="st7" d="M0.7,235.9c0.1,0.1,0.2,0.2,0.3,0.3C0.9,236.1,0.8,236,0.7,235.9z"/>
		<path class="st15" d="M35.8,235.2c-0.3,0-0.6,0-0.9,0c-10.7,0-21.4,0-32.1,0c-0.4,0-0.8,0-1.2,0c-0.1,0-0.2,0-0.3,0
			c-0.4-0.7-0.3-1.4-0.3-2.1c0-11.4,0-22.8,0-34.2c0-2.3,0-2.3-2.3-2.3c-9.7,0-19.3,0-28.9-0.1c-0.3-0.6,0.3-0.9,0.4-1.4
			c0,0,0,0,0,0c0.4-0.4,0.7-1,0.9-1.6c0,0-0.1,0-0.1,0c0.1-0.1,0.2-0.3,0.3-0.4c0.1-0.2,0.2-0.4,0.3-0.6c0.1-0.2,0.2-0.4,0.3-0.6
			c0,0,0,0,0,0c0.1-0.1,0.2-0.3,0.3-0.4c0.1-0.2,0.2-0.4,0.4-0.6c0.1-0.2,0.3-0.4,0.4-0.6c0.1-0.1,0.1-0.2,0.2-0.3
			c0.1-0.1,0.2-0.3,0.3-0.4l0.1,0c0,0,0-0.1,0-0.1c0.1-0.2,0.2-0.3,0.3-0.5c0.1-0.2,0.2-0.4,0.4-0.6c0.1-0.1,0.2-0.2,0.2-0.4
			c0.1-0.2,0.2-0.3,0.3-0.5c0.1-0.2,0.2-0.3,0.3-0.5c0.1-0.2,0.2-0.3,0.3-0.5c0.1-0.1,0.2-0.3,0.3-0.4c0.1-0.2,0.2-0.3,0.3-0.5
			c0.1-0.2,0.2-0.3,0.3-0.5c0.2-0.3,0.4-0.6,0.6-0.9c0.1-0.1,0.2-0.3,0.3-0.4c0.1-0.2,0.2-0.3,0.3-0.5c0.1-0.2,0.2-0.3,0.3-0.5
			c0,0,0,0,0,0c0.1-0.1,0.2-0.2,0.3-0.3c0.1-0.2,0.3-0.4,0.4-0.6c0.1-0.2,0.2-0.4,0.3-0.6c1.5-1.2,2.5-2.8,3.8-4.2
			c4.2-4.5,8.7-8.5,14.7-10.3c1.2-0.4,2.4-0.6,3.6-0.6c0,9.2,0,18.4,0,27.6c0,1.9,0.1,2,2,2c10.7,0,21.5,0,32.2,0
			c0.7,0.4,0.6,1,0.6,1.6c0,1.6,0,3.3,0,4.9C35.8,213.7,35.8,224.5,35.8,235.2z"/>
		<path class="st14" d="M35.3,196.4c-10.7,0-21.5,0-32.2,0c-1.9,0-2-0.1-2-2c0-9.2,0-18.4,0-27.6c5.6-1.3,10.8-0.3,15.8,2.4
			c1.7,0.9,3.3,2,4.8,3.2c0.2,0.4,0.5,0.6,0.9,0.6c6.2,5.9,11.2,12.6,15.4,20c0.1,0.1,0.2,0.2,0.4,0.4c4.8-7.4,10-14.4,16.9-19.9
			c0.5,0.7-0.1,0.9-0.5,1.2c-0.5,0.4-1,0.9-1.5,1.3c-5.1,4.7-9.4,10.2-13.2,16c-1.8,2.7-2,2.7-3.7-0.1c-3.7-6.4-7.9-12.4-13.3-17.4
			c-5.3-4.9-11.5-7.8-19-7.5c-1.9,0.1-2.2,0.3-2.2,2.3c0,7.9,0,15.8,0,23.7c0,2.7,0,2.7,2.6,2.7c9.6,0,19.2,0,28.8,0
			C34,195.8,34.9,195.5,35.3,196.4z"/>
		<path class="st8" d="M-29.8,195.2c-0.1,0.5-0.7,0.8-0.4,1.4c0,0.2,0,0.5,0,0.7C-31.2,196.4-31,195.7-29.8,195.2z"/>
		<path class="st8" d="M-26.7,202.2c0.4,0.3,0.7,0.8,0.9,1.3C-26.6,203.4-26.8,202.9-26.7,202.2z"/>
		<path class="st8" d="M-25.8,203.4c0.4,0.3,0.7,0.7,0.9,1.2C-25.6,204.6-25.8,204.1-25.8,203.4z"/>
		<path class="st8" d="M-28.8,193.7c-0.2,0.6-0.5,1.1-0.9,1.6C-29.7,194.6-29.7,193.8-28.8,193.7z"/>
		<path class="st8" d="M-28.3,200c0.3,0.2,0.5,0.5,0.7,0.9C-28.2,200.9-28.3,200.5-28.3,200z"/>
		<path class="st8" d="M-24,205.9c0.3,0.3,0.6,0.5,0.6,1C-23.8,206.7-24,206.4-24,205.9z"/>
		<path class="st8" d="M-27.4,201.3c0.3,0.2,0.6,0.5,0.7,0.9C-27.2,202.1-27.4,201.7-27.4,201.3z"/>
		<path class="st8" d="M-24.9,204.7c0.3,0.2,0.6,0.6,0.7,0.9C-24.7,205.5-24.9,205.2-24.9,204.7z"/>
		<path class="st8" d="M-28.9,199.1c0.3,0.2,0.5,0.5,0.6,0.9C-28.8,200-28.9,199.6-28.9,199.1z"/>
		<path class="st8" d="M-29.8,197.9c0.3,0.2,0.5,0.5,0.7,0.9C-29.7,198.7-29.8,198.3-29.8,197.9z"/>
		<path class="st8" d="M-21.1,181.9c-0.1,0.2-0.2,0.4-0.3,0.6C-21.8,182.1-21.5,182-21.1,181.9z"/>
		<path class="st8" d="M-22.7,207.7c0.3,0.1,0.5,0.3,0.6,0.6C-22.5,208.3-22.7,208.1-22.7,207.7z"/>
		<path class="st8" d="M-27.9,192.1c-0.1,0.2-0.2,0.4-0.3,0.6C-28.6,192.3-28.3,192.2-27.9,192.1z"/>
		<path class="st8" d="M-26.9,190.5c-0.1,0.2-0.3,0.4-0.4,0.6C-27.6,190.7-27.2,190.7-26.9,190.5z"/>
		<path class="st8" d="M-25.5,188.4c-0.1,0.1-0.2,0.2-0.2,0.4C-25.9,188.4-25.7,188.4-25.5,188.4z"/>
		<path class="st8" d="M-23.6,185.6c-0.1,0.2-0.2,0.3-0.3,0.5C-23.9,185.9-23.8,185.8-23.6,185.6z"/>
		<path class="st8" d="M-24.3,186.5c-0.1,0.1-0.2,0.3-0.3,0.4C-24.5,186.8-24.4,186.7-24.3,186.5z"/>
		<path class="st8" d="M-23,207.4c0.1,0.1,0.2,0.3,0.3,0.4C-22.8,207.6-22.9,207.5-23,207.4z"/>
		<path class="st8" d="M-24.9,187.4c-0.1,0.2-0.2,0.3-0.3,0.5C-25.1,187.8-25,187.6-24.9,187.4z"/>
		<path class="st8" d="M-26.1,189.3c-0.1,0.2-0.2,0.3-0.3,0.5C-26.3,189.6-26.2,189.5-26.1,189.3z"/>
		<path class="st8" d="M-26.5,189.9c-0.1,0.1-0.2,0.3-0.3,0.4C-26.7,190.1-26.6,190-26.5,189.9z"/>
		<path class="st8" d="M-27.7,191.8c-0.1,0.1-0.2,0.3-0.3,0.4C-27.9,192-27.8,191.9-27.7,191.8z"/>
		<path class="st8" d="M-28.6,193.3c-0.1,0.1-0.2,0.3-0.3,0.4C-28.8,193.6-28.7,193.4-28.6,193.3z"/>
		<path class="st8" d="M-30.2,197.4c0.1,0.2,0.2,0.3,0.3,0.5C-29.9,197.8-30,197.6-30.2,197.4z"/>
		<path class="st8" d="M-29.2,198.8c0.1,0.1,0.2,0.3,0.3,0.4C-29,199-29.1,198.9-29.2,198.8z"/>
		<path class="st8" d="M-27.7,200.9c0.1,0.1,0.2,0.3,0.3,0.4C-27.5,201.2-27.6,201.1-27.7,200.9z"/>
		<path class="st8" d="M-21.8,183.1c-0.1,0.1-0.2,0.2-0.3,0.3C-22,183.3-21.9,183.2-21.8,183.1z"/>
		<path class="st8" d="M-22.1,183.4c-0.1,0.2-0.2,0.3-0.3,0.5C-22.3,183.7-22.2,183.6-22.1,183.4z"/>
		<path class="st8" d="M-22.8,184.3c-0.1,0.1-0.2,0.3-0.3,0.4C-22.9,184.6-22.8,184.5-22.8,184.3z"/>
		<path class="st16" d="M35.3,196.4c-0.4-0.9-1.2-0.6-1.9-0.6c-9.6,0-19.2,0-28.8,0c-2.6,0-2.6,0-2.6-2.7c0-7.9,0-15.8,0-23.7
			c0-2,0.3-2.2,2.2-2.3c7.4-0.4,13.6,2.6,19,7.5c5.4,5,9.6,11,13.3,17.4c1.6,2.8,1.9,2.8,3.7,0.1c3.8-5.8,8.1-11.3,13.2-16
			c0.5-0.5,1-0.9,1.5-1.3c0.4-0.3,1-0.6,0.5-1.2c0.1-0.1,0.3-0.2,0.4-0.4c0.5,0.1,1,0,1.2-0.5c0.4,0,0.8-0.1,0.9-0.6
			c0.4,0,0.8-0.1,0.9-0.6c0.9-0.3,2.1-0.2,2.2-1.6c0.5-0.5,1.2-0.7,1.9-0.9c0.1,0.1,0.2,0.4,0.2,0.4c1.3-0.1,2.5-0.7,3.7-1.2
			c0.3-0.1-0.1-0.4-0.3-0.5c0.4-0.1,0.9-0.2,1.3-0.3c0.1,0.4,0.3,0.6,0.8,0.6c2.7-0.3,5.3-0.4,8,0c0.4,0.1,0.7-0.1,0.8-0.5
			c0.4-0.1,0.7,0.1,1,0.3c-0.4,0.6,0.1,0.8,0.5,0.8c1.1,0,1.9,1.5,3.1,0.5c0.3,0.2,0.6,0.3,1,0.5c0.5,0.8,0.8,1.9,2.1,1.1
			c0.3,0.2,0.6,0.4,0.9,0.6c0.1,0.8,0.5,0.9,1.2,0.8c0.1,0.1,0.3,0.2,0.4,0.3c-0.3,0.9,0.3,0.5,0.7,0.5c0,0,0,0,0,0
			c-0.1,0.9,0.2,1.4,1.2,1.1c0.1,0,0.1,0,0.2,0.1c0,0-0.1,0.1-0.1,0.1l0.1-0.1c0.4,0.2,0.7,0.4,0.9,0.8c-0.4,0.8,0.3,0.6,0.6,0.6
			c0.2,0.2,0.4,0.4,0.6,0.6c-0.3,1.3,0.6,1.4,1.5,1.6c0.5,0.4,1,0.9,1.4,1.3c0,0,0,0,0,0c0.1,0.1,0.2,0.2,0.3,0.4c0,0-0.1,0-0.1,0
			c0.1,0.2,0.1,0.3,0.2,0.5c-0.1,0.1-0.3,0.3-0.1,0.4c0,0,0.2-0.1,0.4-0.2c0.4,0.4,0.7,0.7,1.1,1.1c0,0,0,0,0,0
			c0.1,0.2,0.1,0.3,0.2,0.5c-0.1,0.1-0.3,0.3-0.1,0.4c0,0,0.2-0.1,0.4-0.1c0.2,0.3,0.4,0.5,0.6,0.8c-0.1,0.7,0.1,1.1,0.9,1.1
			c0.1,0.2,0.3,0.4,0.4,0.6c-0.3,1,0.3,1.4,1.1,1.6c0.1,0.2,0.2,0.3,0.3,0.5c0,0.5,0.2,0.9,0.7,1c0.1,0.2,0.3,0.4,0.4,0.7
			c-0.1,0.1-0.1,0.1-0.2,0.2c0.1,0,0.2,0.1,0.3,0.1c0.1,0.1,0.1,0.2,0.2,0.3c0.1,0.2,0.3,0.4,0.4,0.6c0.3,0.4,0.5,0.8,0.8,1.3
			c-0.5,0.7,0,0.9,0.6,0.9c0.3,0.3,0.5,0.7,0.7,1.2c-0.2,1.1,0.1,1.9,1.3,2.2c0.1,0.2,0.2,0.4,0.4,0.6c0,0-0.1,0.1-0.1,0.1l0.1,0
			c0,0,0,0.1,0,0.1c0,0.8-0.4,1.9,1,1.9c0.3,0.2,0.4,0.6,0.5,0.9c-0.5,0.5-0.2,1.1-0.2,1.6c-7.8,0-15.6,0-23.4,0.1
			c-4.7,0-9.4,0-14.2,0c-0.9,0-1.6,0.1-1.5,1.2c-1,0.4-0.7,1.3-0.7,2c0,9.6,0,19.2,0,28.8c0,2.3,0,2.3-2.3,2.3c-9,0-18,0-27,0
			c-0.7,0-1.6-0.4-1.9,0.8c-0.1,0-0.3,0.1-0.4,0.1c-0.1,0-0.2,0-0.3,0c0-10.8,0-21.5,0.1-32.3c0-1.6,0-3.3,0-4.9
			C35.9,197.4,35.9,196.8,35.3,196.4z"/>
		<path class="st7" d="M84.7,235.9c0.6-1.3,1.5-2.2,2.7-2.8C86.9,234.4,85.9,235.3,84.7,235.9z"/>
		<path class="st14" d="M107.2,197.5c-1.4-0.1-1-1.1-1-1.9c0.1,0,0.1,0.1,0.1,0.1c0.1,0.1,0.1,0.2,0.2,0.3
			C106.7,196.5,106.9,197,107.2,197.5z"/>
		<path class="st14" d="M105.7,194.8c-1.2-0.3-1.5-1.1-1.3-2.2C105,193.3,105.4,194,105.7,194.8z"/>
		<path class="st14" d="M100.1,185.9c-0.9-0.2-1.5-0.6-1.1-1.6c0.2,0.2,0.5,0.5,0.7,0.7c0,0,0,0,0,0
			C99.8,185.3,99.9,185.6,100.1,185.9z"/>
		<path class="st14" d="M107.5,200c0.1-0.5-0.3-1.1,0.2-1.6c0.2,0.3,0.4,0.7,0.6,1c0,0.1,0,0.3,0,0.4c-0.1,0.1-0.1,0.3-0.2,0.4
			C107.9,200.2,107.7,200.1,107.5,200z"/>
		<path class="st11" d="M107.6,205.7c-0.1,0.1-0.1,0.2-0.2,0.3c-0.2,0.1-0.3,0-0.3-0.2c0-0.1,0.1-0.2,0.2-0.2
			C107.4,205.5,107.5,205.5,107.6,205.7z"/>
		<path class="st14" d="M103.7,191.4c-0.6-0.1-1.1-0.2-0.6-0.9C103.3,190.8,103.5,191.1,103.7,191.4z"/>
		<path class="st14" d="M101.1,187.4c-0.5-0.2-0.7-0.5-0.7-1C100.6,186.7,100.9,187,101.1,187.4z"/>
		<path class="st14" d="M101.7,188.3c-0.1,0-0.2-0.1-0.3-0.1c0.1-0.1,0.1-0.1,0.2-0.2C101.6,188.1,101.7,188.2,101.7,188.3z"/>
		<path class="st14" d="M102.3,189.2c-0.1-0.2-0.3-0.4-0.4-0.6C102.1,188.8,102.2,189,102.3,189.2z"/>
		<polygon class="st14" points="106.1,195.5 106,195.5 106.1,195.4 		"/>
		<path class="st16" d="M106.4,196c-0.1-0.1-0.1-0.2-0.2-0.3C106.3,195.8,106.3,195.9,106.4,196z"/>
		<path class="st13" d="M108.3,199.9c0-0.1,0-0.3,0-0.4c0,0.1,0.1,0.2,0.1,0.3C108.4,199.8,108.3,199.8,108.3,199.9z"/>
		<path class="st7" d="M79.1,241.4c0.9-0.9,1.9-1.8,2.8-2.7C81.5,240.1,80.6,241.1,79.1,241.4z"/>
		<path class="st7" d="M74.7,245.4c0.6-0.8,1.4-1.4,2.1-2C76.6,244.6,76,245.3,74.7,245.4z"/>
		<path class="st6" d="M65.4,253.4c0.3-0.5,0.7-0.8,1.2-1.1C66.7,253.2,66.2,253.5,65.4,253.4z"/>
		<path class="st7" d="M73.5,246.6c0.1-0.3,0.3-0.6,0.6-0.7C74,246.4,73.8,246.6,73.5,246.6z"/>
		<path class="st7" d="M77.7,242.6c0.2-0.2,0.5-0.4,0.7-0.6C78.4,242.4,78.1,242.6,77.7,242.6z"/>
		<path class="st7" d="M74.1,246c0.2-0.2,0.4-0.4,0.7-0.6C74.7,245.8,74.4,246,74.1,246z"/>
		<path class="st7" d="M82.2,238.3c0.1-0.1,0.2-0.2,0.3-0.3C82.4,238.2,82.3,238.3,82.2,238.3z"/>
		<path class="st7" d="M81.9,238.7c0.1-0.1,0.2-0.2,0.3-0.3C82.1,238.5,82,238.6,81.9,238.7z"/>
		<path class="st7" d="M78.7,241.7c0.1-0.1,0.2-0.2,0.3-0.3C79,241.5,78.9,241.6,78.7,241.7z"/>
		<path class="st7" d="M78.4,242c0.1-0.1,0.2-0.2,0.3-0.3C78.7,241.8,78.5,241.9,78.4,242z"/>
		<path class="st10" d="M99.7,185c-0.2-0.2-0.5-0.5-0.7-0.7c-0.1-0.2-0.3-0.4-0.4-0.6c-0.3-0.4-0.6-0.7-0.9-1.1
			c-0.2-0.3-0.4-0.5-0.6-0.8c-0.1-0.1-0.2-0.2-0.2-0.3c-0.1-0.2-0.1-0.3-0.2-0.5C98.4,181.8,99.3,183.2,99.7,185z"/>
		<path class="st10" d="M96.6,181c-0.4-0.4-0.7-0.7-1.1-1.1c-0.1-0.1-0.2-0.2-0.2-0.3c-0.1-0.2-0.1-0.3-0.2-0.5
			C96.1,179.3,96.6,179.9,96.6,181z"/>
		<path class="st10" d="M95.1,179.2c-0.1-0.1-0.2-0.2-0.3-0.4C94.9,178.9,95,179,95.1,179.2z"/>
		<path class="st17" d="M-22.4,364.9c-0.8,0.9-1.7,1.6-2.9,1.9C-24.6,365.7-23.6,365-22.4,364.9z"/>
		<path class="st17" d="M-24.8,374.7c-0.7-0.7-1-1.4-1.1-2.3C-25.3,373-24.8,373.7-24.8,374.7z"/>
		<path class="st3" d="M25.7,378.5c-2.4,0-4.2-2.1-4-4.8c0.1-1.2,0.4-2.3,0.7-3.5c0.9-3.2,2-3.9,5.3-3.9c2.2,0.1,4.4,0,5.8,2.3
			c0.3,0.6,0.6,1.1,0.6,1.7C34.1,375.5,31,378.3,25.7,378.5z"/>
		<path class="st17" d="M25.2,380.2c-1.6,0.1-2.5-0.4-3.6-1.5C23,379.2,24,379.3,25.2,380.2z"/>
		<path class="st17" d="M23.3,366c-0.5,0.7-1,1.4-1.5,2C21.8,367,22.1,366.2,23.3,366z"/>
		<path class="st3" d="M29.7,378.5c-0.6,0.5-1.4,0.5-2.4,0.6C28.2,378.3,28.9,378.3,29.7,378.5L29.7,378.5z"/>
		<path class="st3" d="M29.7,378.4C29.7,378.4,29.7,378.3,29.7,378.4c0.1-0.1,0.2,0,0.2,0C29.8,378.4,29.8,378.4,29.7,378.4
			C29.7,378.5,29.7,378.4,29.7,378.4z"/>
		<path class="st17" d="M99.6,369.7c1.2-0.1,2.1,0.4,2.7,1.6C101.4,370.7,100.5,370.2,99.6,369.7z"/>
		<path class="st17" d="M97.8,368.3c-0.9,0.1-1.7-0.1-2.4-0.7C96.4,367.4,97.1,367.7,97.8,368.3z"/>
		<path class="st17" d="M95.2,381.2c0.8-0.4,1.4-0.3,2,0C96.6,381.5,96.1,381.6,95.2,381.2z"/>
		<path class="st17" d="M124.6,371.1c-1-0.4-2-0.7-3-1.8C123.1,369.6,124,370,124.6,371.1z"/>
		<path class="st17" d="M120,368.4c-0.9,0.1-1.7-0.1-2.4-0.7C118.5,367.4,119.3,367.6,120,368.4z"/>
		<path class="st17" d="M117.4,381.1c0.7-0.3,1.4-0.1,2.2-0.1C118.5,381.6,118.5,381.6,117.4,381.1z"/>
		<path class="st17" d="M0.6,366.4c1.1,0.9,0.8,1.9,0.4,3.2c-0.8-1.1-0.3-2.3-0.9-3.2C0.2,366.4,0.4,366.4,0.6,366.4z"/>
		<path class="st17" d="M-3.3,362.1c0.9-0.4,1.8-0.6,3.1-0.4C-1.4,362.5-2.3,362.4-3.3,362.1z"/>
		<path class="st17" d="M13.7,380.8c-0.8,0.5-1.4,0.6-2.2,0C12.2,380.2,12.9,380.2,13.7,380.8z"/>
		<path class="st3" d="M0.6,366.4c-0.2,0-0.3,0-0.5,0c0-0.6,0-1.3,0-2.1C1.2,365,1,365.6,0.6,366.4z"/>
		<path class="st17" d="M0.1,379.7c0.6-0.5,1.2-0.4,2-0.2C1.4,380.2,0.7,379.9,0.1,379.7z"/>
		<path class="st17" d="M-2.2,363.8c0.6-0.5,1-0.8,1.5-0.3c0.1,0.1,0.1,0.6,0,0.7C-1.4,364.7-1.5,363.8-2.2,363.8z"/>
		<path class="st17" d="M3.9,365.6c-0.5,0.5-1,1-1.9,1c0.4-0.9,1.1-1,1.7-1.2C3.8,365.5,3.8,365.5,3.9,365.6z"/>
		<path class="st5" d="M12.5,368.8c-0.4-0.6-0.6-1-0.4-1.6C12.7,367.6,12.8,368,12.5,368.8z"/>
		<path class="st17" d="M3.7,365.4c0.1,0,0.2-0.1,0.4-0.1c-0.1,0.1-0.1,0.2-0.2,0.3C3.8,365.5,3.8,365.5,3.7,365.4z"/>
		<path class="st17" d="M44.5,366.7c-1.2-0.7-0.4-1.6-0.5-2.6C45.4,364.9,44.8,365.8,44.5,366.7L44.5,366.7z"/>
		<path class="st17" d="M43.7,361.7c-1.1,0.8-2,0.7-3.2,0.5C41.6,361.6,42.4,361.4,43.7,361.7z"/>
		<path class="st17" d="M56.4,380.3c0.4,0,0.9-0.1,1,0.4c0,0.6-0.5,0.4-0.9,0.5c-0.3,0-0.8,0.1-0.9-0.3
			C55.5,380.3,56.1,380.5,56.4,380.3z"/>
		<path class="st3" d="M44.5,366.7c1.2,0.6,0.4,1.6,0.4,2.5C44.4,368.4,44.5,367.5,44.5,366.7C44.5,366.7,44.5,366.7,44.5,366.7z"/>
		<path class="st17" d="M46,379.6c-0.6,0.5-1.2,0.4-2,0.2C44.7,379.1,45.4,379.4,46,379.6z"/>
		<path class="st17" d="M48,365.5c-0.5,0.6-1,1.1-2.2,1.1c0.6-0.9,1.3-1.1,2-1.3C47.9,365.4,47.9,365.5,48,365.5z"/>
		<path class="st17" d="M42.6,363.2c0.5-0.1,0.6,0.2,0.6,0.5c0,0.3,0,0.7-0.4,0.6c-0.3-0.1-0.7-0.3-0.8-0.6
			C42,363.4,42.5,363.4,42.6,363.2z"/>
		<path class="st5" d="M57.7,367.5c0.5,0.4,0.7,0.8,0.5,1.3c0,0.1-0.3,0.1-0.4,0C57.5,368.5,57.4,368.1,57.7,367.5z"/>
		<path class="st5" d="M56.2,367.6c0.5,0.1,0.6,0.5,0.5,0.9c0,0.1-0.3,0.2-0.3,0.1C56.1,368.3,55.9,368,56.2,367.6z"/>
		<path class="st17" d="M47.8,365.4c0.1-0.1,0.3-0.4,0.4-0.2c0.2,0.2-0.1,0.3-0.3,0.4C47.9,365.5,47.9,365.4,47.8,365.4z"/>
		<path class="st3" d="M75.4,364.3c0.2,0.9,1.1,1.3,1.6,2c0.4,0.5,0.8,1,0.5,1.7c-0.4,0.7-1,0.3-1.5,0.2c-2.4-0.5-4.8-0.5-7.2-0.8
			c-0.6-0.1-1.6,0.1-1.7-0.7c-0.1-0.7,0.6-1.3,1.2-1.7c1.9-1,3.9-1.7,6-0.8C74.7,364.2,75,364.4,75.4,364.3L75.4,364.3z"/>
		<path class="st17" d="M74.1,369.8c-1.7,0.4-3.3-0.1-4.9-0.4C70.8,369.1,72.4,369.3,74.1,369.8z"/>
		<path class="st17" d="M71.8,368.4c-0.8,0.2-1.5,0.2-2.6-0.2C70.4,367.8,71.1,368,71.8,368.4z"/>
		<path class="st17" d="M74.7,363.5c-0.3-0.1-0.6-0.1-0.6-0.5c0-0.1,0.2-0.2,0.3-0.2c0.3,0,0.6,0.1,0.6,0.5
			C75,363.5,74.9,363.6,74.7,363.5z"/>
		<path class="st17" d="M75.4,364.3c0.1-0.3,0.1-0.7,0.5-0.5c0.1,0,0.2,0.1,0.2,0.2C76,364.4,75.6,364.1,75.4,364.3
			C75.4,364.3,75.4,364.3,75.4,364.3z"/>
		<path class="st3" d="M-11,372.5c0.2-2.7-0.3-5.5,0.6-8.2C-10.3,367-10.3,369.8-11,372.5z"/>
		<path class="st17" d="M-13.7,361.9c0.9-0.6,1.7-0.4,2.6-0.2C-12,362.3-12.7,362.1-13.7,361.9z"/>
		<path class="st5" d="M-11.6,377.8c-1.1,0.5-1.8,0.4-2.6-0.1C-13.3,377.4-12.7,377.5-11.6,377.8z"/>
		<path class="st14" d="M77.2,167.3c-0.1,0.4-0.4,0.6-0.8,0.5c-2.7-0.4-5.3-0.3-8,0c-0.4,0.1-0.7-0.2-0.8-0.6c0,0,0.1,0,0.1,0
			s0,0.1,0,0.1c0.1,0,0.3-0.1,0.4-0.1c0.6-0.2,1.1-0.4,1.8-0.2c0.7,0,1.3,0.1,2-0.1c0.5-0.2,1.1-0.2,1.6,0c0.3,0,0.5,0.1,0.8,0.1
			c0.8-0.2,1.6-0.1,2.3,0.3c0.1,0,0.2,0,0.4,0.1C77.1,167.3,77.2,167.3,77.2,167.3z"/>
		<path class="st14" d="M66.3,167.6c0.2,0.1,0.6,0.4,0.3,0.5c-1.2,0.5-2.4,1-3.7,1.2c-0.1,0-0.2-0.2-0.2-0.4
			c0.2-0.1,0.4-0.2,0.7-0.3c0.3,0,0.6-0.1,0.9-0.3c0,0,0,0,0,0c0.2-0.1,0.4-0.1,0.6-0.2C65.3,167.9,65.8,167.8,66.3,167.6z"/>
		<path class="st14" d="M81.9,168.9c-1.2,1-2.1-0.5-3.1-0.5c-0.3,0-0.9-0.2-0.5-0.8c0.1,0,0.2,0,0.2,0c0.3,0.3,0.6,0.3,1,0.3
			c0.1,0,0.2,0,0.3,0.1c0.2,0.1,0.4,0.1,0.7,0.2C80.9,168.3,81.4,168.6,81.9,168.9z"/>
		<path class="st14" d="M60.9,169.8c-0.1,1.4-1.3,1.2-2.2,1.6l0,0c0-0.1,0-0.2,0-0.3C59.3,170.5,60.1,170.1,60.9,169.8z"/>
		<path class="st14" d="M84.9,170.5c-1.3,0.8-1.6-0.4-2.1-1.1c0.5,0.1,0.9,0.3,1.2,0.6c0.1,0.1,0.1,0.1,0.2,0.1
			C84.5,170.3,84.7,170.4,84.9,170.5z"/>
		<path class="st14" d="M93.3,177.5c-0.9-0.1-1.8-0.2-1.5-1.6C92.4,176.4,92.9,176.9,93.3,177.5z"/>
		<path class="st14" d="M89.4,173.8c-1,0.3-1.3-0.2-1.2-1.1C88.7,173,89.1,173.4,89.4,173.8z"/>
		<path class="st14" d="M87,171.9c-0.6,0.1-1.1,0-1.2-0.8C86.3,171.3,86.7,171.5,87,171.9z"/>
		<path class="st14" d="M58.7,171.4c-0.1,0.5-0.5,0.6-0.9,0.6l0,0c0-0.1,0-0.2,0-0.3c0.2-0.1,0.3-0.2,0.5-0.3
			C58.4,171.3,58.6,171.4,58.7,171.4L58.7,171.4z"/>
		<path class="st16" d="M71.9,166.9c-0.6,0.3-1.3,0.1-2,0.1C70.6,166.7,71.3,166.8,71.9,166.9z"/>
		<path class="st14" d="M57.8,172c-0.1,0.5-0.5,0.6-0.9,0.6l0,0c0-0.1,0-0.2,0-0.3c0.2-0.1,0.3-0.2,0.5-0.4
			C57.5,172,57.6,172,57.8,172L57.8,172z"/>
		<path class="st14" d="M91.2,175.4c-0.3-0.1-1,0.2-0.6-0.6C90.8,174.9,91,175.2,91.2,175.4z"/>
		<path class="st14" d="M88.2,172.7c-0.4,0.1-1,0.4-0.7-0.5C87.7,172.4,87.9,172.6,88.2,172.7z"/>
		<path class="st14" d="M56.9,172.6c-0.2,0.6-0.7,0.6-1.2,0.5c0.3-0.2,0.5-0.4,0.8-0.6C56.6,172.6,56.7,172.6,56.9,172.6L56.9,172.6
			z"/>
		<path class="st16" d="M64.3,168.3c-0.2,0.3-0.5,0.3-0.9,0.3C63.6,168.3,63.9,168.4,64.3,168.3z"/>
		<path class="st16" d="M79.5,168c-0.4,0-0.7,0-1-0.3C78.8,167.6,79.2,167.7,79.5,168z"/>
		<path class="st16" d="M80.4,168.3c-0.2-0.1-0.4-0.1-0.7-0.2C79.9,168.1,80.2,168.2,80.4,168.3z"/>
		<path class="st16" d="M74.3,167c-0.3,0-0.5-0.1-0.8-0.1C73.8,166.8,74.1,166.8,74.3,167z"/>
		<path class="st16" d="M64.9,168.1c-0.2,0.1-0.4,0.1-0.6,0.2C64.5,168.2,64.7,168.1,64.9,168.1z"/>
		<path class="st16" d="M84.3,170.1c-0.1,0-0.2-0.1-0.2-0.1C84.2,170,84.2,170,84.3,170.1z"/>
		<path class="st16" d="M68.2,167.2c-0.1,0-0.3,0.1-0.4,0.1C67.9,167.3,68.1,167.3,68.2,167.2z"/>
		<path class="st16" d="M77,167.3c-0.1,0-0.2,0-0.4-0.1C76.8,167.3,76.9,167.3,77,167.3z"/>
		<path class="st16" d="M58.7,171.4c-0.1,0-0.3,0-0.4,0c0.1-0.1,0.3-0.2,0.4-0.2C58.7,171.2,58.7,171.3,58.7,171.4z"/>
		<path class="st16" d="M57.8,172c-0.1,0-0.3,0-0.4,0c0.1-0.1,0.3-0.2,0.4-0.3C57.8,171.8,57.8,171.9,57.8,172z"/>
		<path class="st16" d="M56.9,172.6c-0.1,0-0.3,0-0.4,0c0.1-0.1,0.3-0.2,0.4-0.3C56.9,172.4,56.9,172.5,56.9,172.6z"/>
		<polygon class="st14" points="89.6,174 89.5,174.1 89.6,174 		"/>
		<path class="st14" d="M36.5,235.1c0.3-1.2,1.2-0.8,1.9-0.8c9,0,18,0,27,0c2.3,0,2.3,0,2.3-2.3c0-9.6,0-19.2,0-28.8
			c0-0.7-0.3-1.6,0.7-2c0.3,0.6,0.2,1.2,0.2,1.8c0,10.1,0,20.2,0,30.2c0,1.5-0.4,1.9-1.9,1.9c-9.6-0.1-19.1,0-28.7,0
			C37.5,235.2,37,235.1,36.5,235.1z"/>
		<path class="st16" d="M2.8,235.3c10.7,0,21.4,0,32.1,0c0.3,1.4,0.3,2.7,0.3,4.1c0,9.1,0,18.2,0,27.3c0,0.4,0,0.8,0,1.2
			c0,0.4,0.1,0.9-0.4,1.1c-0.5,0.2-0.8-0.2-1-0.5c-1.9-1.9-3.9-3.7-5.8-5.5c-5.2-5-10.3-10.2-15.4-15.3c-3.2-3.2-6.2-6.6-9.3-9.9
			C2.6,237,2.7,236.2,2.8,235.3z"/>
		<path class="st16" d="M0.4,215.5c0,5.3,0,10.7,0,16c0,0.6,0.2,1.4-0.5,1.6c-0.7,0.2-1.1-0.5-1.4-1c-7.2-8.4-14.5-16.8-21-25.8
			c-1.8-2.5-3.7-5-5.6-7.5c-0.3-0.4-0.7-0.7-0.5-1.2c0.2-0.5,0.8-0.4,1.2-0.4c8.7,0,17.4,0,26.1,0c1.4,0,1.8,0.6,1.8,1.8
			C0.4,204.6,0.4,210,0.4,215.5z"/>
		<path class="st16" d="M1.3,235.3c0.1,0,0.2,0,0.3,0C1.5,235.3,1.4,235.3,1.3,235.3z"/>
		<path class="st14" d="M97.6,182.6c0.3,0.4,0.6,0.7,0.9,1.1C97.8,183.7,97.6,183.2,97.6,182.6z"/>
		<path class="st14" d="M96.8,181.5c0.1,0.1,0.2,0.2,0.2,0.3c-0.1,0.1-0.3,0.2-0.4,0.1C96.4,181.8,96.7,181.6,96.8,181.5z"/>
		<path class="st14" d="M95.2,179.6c0.1,0.1,0.2,0.2,0.2,0.3c-0.1,0.1-0.3,0.2-0.4,0.2C94.9,179.9,95.1,179.8,95.2,179.6z"/>
	</g>
</g>
</svg>
